<svg width="24" height="25" viewBox="0 0 24 25" fill="none" xmlns="http://www.w3.org/2000/svg">
<circle cx="12" cy="12.5" r="12" fill="#F9FAFA"/>
<path d="M16.1847 10.0857C15.8896 9.91707 15.5103 9.91707 15.1731 10.0857L12.8126 11.4767L11.2109 12.3618L8.89258 13.7528C8.59753 13.9214 8.21817 13.9214 7.88096 13.7528L6.06848 12.6569C5.77342 12.4883 5.56267 12.1511 5.56267 11.7717V9.66417C5.56267 9.32696 5.73127 8.98975 6.06848 8.779L7.88096 7.72523C8.17602 7.55663 8.55538 7.55663 8.89258 7.72523L10.7051 8.82115C11.0001 8.98975 11.2109 9.32696 11.2109 9.70632V11.0973L12.8126 10.17V8.73685C12.8126 8.39964 12.644 8.06244 12.3068 7.85168L8.93473 5.87059C8.63968 5.70199 8.26032 5.70199 7.92311 5.87059L4.46675 7.89383C4.12954 8.06243 3.96094 8.39964 3.96094 8.73685V12.699C3.96094 13.0362 4.12954 13.3734 4.46675 13.5842L7.88096 15.5653C8.17602 15.7339 8.55538 15.7339 8.89258 15.5653L11.2109 14.2165L12.8126 13.2891L15.1309 11.9403C15.426 11.7717 15.8053 11.7717 16.1425 11.9403L17.955 12.9941C18.2501 13.1627 18.4608 13.4999 18.4608 13.8792V15.9868C18.4608 16.324 18.2922 16.6612 17.955 16.872L16.1847 17.9257C15.8896 18.0943 15.5103 18.0943 15.1731 17.9257L13.3606 16.872C13.0655 16.7034 12.8548 16.3661 12.8548 15.9868V14.638L11.253 15.5653V16.9563C11.253 17.2935 11.4216 17.6307 11.7588 17.8414L15.1731 19.8225C15.4681 19.9911 15.8475 19.9911 16.1847 19.8225L19.5989 17.8414C19.8939 17.6728 20.1047 17.3356 20.1047 16.9563V12.9519C20.1047 12.6147 19.9361 12.2775 19.5989 12.0668L16.1847 10.0857Z" fill="#8247E5"/>
</svg>
