<svg width="24" height="25" viewBox="0 0 24 25" fill="none" xmlns="http://www.w3.org/2000/svg">
<circle cx="12" cy="12.5" r="12" fill="#F9FAFA"/>
<path d="M6.55906 15.8765C6.65991 15.7756 6.79857 15.7168 6.94564 15.7168H20.2826C20.5264 15.7168 20.6482 16.0109 20.4759 16.1832L17.8413 18.8178C17.7405 18.9187 17.6018 18.9775 17.4547 18.9775H4.11772C3.87401 18.9775 3.75215 18.6834 3.92443 18.5111L6.55906 15.8765Z" fill="url(#paint0_linear_1_1521)"/>
<path d="M6.55906 6.04053C6.66411 5.93969 6.80277 5.88086 6.94564 5.88086H20.2826C20.5264 5.88086 20.6482 6.175 20.4759 6.34728L17.8413 8.9819C17.7405 9.08275 17.6018 9.14158 17.4547 9.14158H4.11772C3.87401 9.14158 3.75215 8.84744 3.92443 8.67516L6.55906 6.04053Z" fill="url(#paint1_linear_1_1521)"/>
<path d="M17.8413 10.9273C17.7405 10.8264 17.6018 10.7676 17.4547 10.7676H4.11772C3.87401 10.7676 3.75215 11.0617 3.92443 11.234L6.55906 13.8686C6.65991 13.9695 6.79857 14.0283 6.94564 14.0283H20.2826C20.5264 14.0283 20.6482 13.7342 20.4759 13.5619L17.8413 10.9273Z" fill="url(#paint2_linear_1_1521)"/>
<defs>
<linearGradient id="paint0_linear_1_1521" x1="19.0086" y1="4.30617" x2="9.7783" y2="21.9858" gradientUnits="userSpaceOnUse">
<stop stop-color="#00FFA3"/>
<stop offset="1" stop-color="#DC1FFF"/>
</linearGradient>
<linearGradient id="paint1_linear_1_1521" x1="14.9726" y1="2.19989" x2="5.74232" y2="19.8796" gradientUnits="userSpaceOnUse">
<stop stop-color="#00FFA3"/>
<stop offset="1" stop-color="#DC1FFF"/>
</linearGradient>
<linearGradient id="paint2_linear_1_1521" x1="16.9777" y1="3.24659" x2="7.74746" y2="20.9263" gradientUnits="userSpaceOnUse">
<stop stop-color="#00FFA3"/>
<stop offset="1" stop-color="#DC1FFF"/>
</linearGradient>
</defs>
</svg>
