<svg width="24" height="25" viewBox="0 0 24 25" fill="none" xmlns="http://www.w3.org/2000/svg">
<circle cx="12" cy="12.5" r="12" fill="#F9FAFA"/>
<path d="M18.3299 7.08002L16.1911 8.16971L5.86308 13.4303C5.82816 13.1639 5.81059 12.8956 5.81048 12.6269C5.81189 11.555 6.09331 10.5021 6.62686 9.57246C7.16041 8.64279 7.92758 7.86865 8.85238 7.32671C9.77718 6.78477 10.8275 6.49384 11.8993 6.48273C12.9712 6.47163 14.0273 6.74073 14.9631 7.26339L16.1874 6.63963L16.37 6.54644C15.2485 5.73247 13.9238 5.24442 12.5424 5.13623C11.1609 5.02803 9.77636 5.30391 8.54186 5.93337C7.30736 6.56283 6.27093 7.52136 5.54712 8.70303C4.82332 9.88469 4.44033 11.2435 4.44047 12.6292C4.44047 12.8206 4.44773 13.0112 4.46226 13.2011C4.48261 13.47 4.42297 13.7389 4.29086 13.974C4.15874 14.2091 3.96004 14.3998 3.71977 14.5222L3.07422 14.8514V16.3867L4.97479 15.418L5.59028 15.1039L6.19675 14.795L17.0847 9.24738L18.3081 8.62437L20.837 7.33553V5.80094L18.3299 7.08002Z" fill="black"/>
<path d="M20.837 8.87305L6.81525 16.0124L5.59179 16.6369L3.07422 17.9198V19.4536L5.5745 18.1798L7.7133 17.0901L18.0519 11.822C18.0868 12.0901 18.1044 12.3602 18.1045 12.6306C18.1038 13.7037 17.8225 14.758 17.2884 15.6888C16.7543 16.6196 15.9861 17.3945 15.06 17.9366C14.1338 18.4788 13.082 18.7692 12.0089 18.7792C10.9358 18.7891 9.87881 18.5182 8.94278 17.9934L8.86763 18.0332L7.54046 18.7096C8.66166 19.5236 9.98606 20.0118 11.3673 20.1202C12.7486 20.2287 14.133 19.9532 15.3675 19.3241C16.602 18.6951 17.6386 17.737 18.3627 16.5558C19.0868 15.3746 19.4703 14.0161 19.4707 12.6306C19.4707 12.4375 19.4632 12.2443 19.4489 12.0534C19.4286 11.7846 19.4882 11.5158 19.6201 11.2808C19.7521 11.0457 19.9506 10.8549 20.1907 10.7323L20.837 10.4031V8.87305Z" fill="black"/>
</svg>
