<svg width="24" height="25" viewBox="0 0 24 25" fill="none" xmlns="http://www.w3.org/2000/svg">
<circle cx="12" cy="12.5" r="12" fill="#F9FAFA"/>
<path d="M19.8633 10.8772C19.1066 10.1785 18.0597 9.11147 17.2071 8.35473L17.1567 8.31942C17.0727 8.25201 16.9781 8.19915 16.8767 8.16302C14.8209 7.77961 5.25319 5.99118 5.06653 6.01389C5.01422 6.02121 4.96423 6.04017 4.92022 6.06938L4.8723 6.10722C4.81328 6.16715 4.76846 6.23956 4.74113 6.3191L4.72852 6.3519V6.53099V6.55874C5.80561 9.55795 10.0585 19.3829 10.8959 21.6885C10.9464 21.8449 11.0422 22.1425 11.2213 22.1576H11.2617C11.3575 22.1576 11.7662 21.6178 11.7662 21.6178C11.7662 21.6178 19.0712 12.759 19.8103 11.8155C19.906 11.6993 19.9904 11.5743 20.0626 11.4422C20.081 11.3389 20.0723 11.2325 20.0374 11.1335C20.0024 11.0344 19.9425 10.9461 19.8633 10.8772ZM13.6404 11.9089L16.7581 9.32336L18.5869 11.0084L13.6404 11.9089ZM12.4296 11.7399L7.06179 7.3407L15.7466 8.94246L12.4296 11.7399ZM12.9139 12.8926L18.4078 12.0073L12.1269 19.5746L12.9139 12.8926ZM6.3328 7.77961L11.9806 12.5723L11.1633 19.5797L6.3328 7.77961Z" fill="#FF060A"/>
</svg>
