<svg width="33" height="33" viewBox="0 0 33 33" fill="none" xmlns="http://www.w3.org/2000/svg">
<g clip-path="url(#clip0_371_6111)">
<path d="M16.5 33C25.6127 33 33 25.6127 33 16.5C33 7.3873 25.6127 0 16.5 0C7.3873 0 0 7.3873 0 16.5C0 25.6127 7.3873 33 16.5 33Z" fill="#F0F0F0"/>
<path d="M16.4995 0C9.95787 0 4.30559 3.80692 1.63672 9.32611H31.3622C28.6934 3.80692 23.041 0 16.4995 0Z" fill="#338AF3"/>
<path d="M16.4995 33.0019C23.041 33.0019 28.6934 29.195 31.3622 23.6758H1.63672C4.30559 29.195 9.95787 33.0019 16.4995 33.0019Z" fill="#338AF3"/>
<path d="M21.4316 16.4999L19.4165 17.4479L20.4896 19.3994L18.3014 18.9808L18.0241 21.1913L16.5 19.5655L14.9758 21.1913L14.6986 18.9808L12.5104 19.3994L13.5834 17.4478L11.5684 16.4999L13.5835 15.552L12.5104 13.6005L14.6985 14.0191L14.9759 11.8086L16.5 13.4344L18.0242 11.8086L18.3014 14.0191L20.4896 13.6005L19.4166 15.5521L21.4316 16.4999Z" fill="#FFDA44"/>
</g>
<defs>
<clipPath id="clip0_371_6111">
<rect width="33" height="33" fill="white"/>
</clipPath>
</defs>
</svg>
