<svg width="33" height="33" viewBox="0 0 33 33" fill="none" xmlns="http://www.w3.org/2000/svg">
<g clip-path="url(#clip0_371_6117)">
<path d="M33 16.5C33 25.6126 25.6126 33 16.5 33C7.38736 33 0 25.6126 0 16.5C0 16.5039 16.5 0.00186914 16.5 0C25.6126 0 33 7.38736 33 16.5Z" fill="#0052B4"/>
<path d="M16.4551 16.5012H16.4992C16.4992 16.4862 16.4992 16.4719 16.4992 16.457C16.4845 16.4718 16.4698 16.4865 16.4551 16.5012Z" fill="#F0F0F0"/>
<path d="M16.5 8.60868C16.5 5.70539 16.5 3.80293 16.5 0H16.4972C7.38581 0.00148242 0 7.38813 0 16.4999H8.60868V11.6523L13.4563 16.4999H16.4559C16.4707 16.4852 16.4854 16.4705 16.5001 16.4558C16.5001 15.3442 16.5001 14.3523 16.5001 13.4564L11.6524 8.60868H16.5Z" fill="#F0F0F0"/>
<path d="M8.34784 2.15234C5.7672 3.62181 3.62181 5.7672 2.15234 8.34784V16.5002H6.45672V6.45678V6.45672H16.5002C16.5002 5.09914 16.5002 3.80582 16.5002 2.15234H8.34784Z" fill="#D80027"/>
<path d="M16.5006 14.4715L10.6384 8.6094H8.60938C8.60938 8.60934 8.60938 8.6094 8.60938 8.6094L16.5006 16.5006H16.5006C16.5006 16.5006 16.5006 15.1016 16.5006 14.4715Z" fill="#D80027"/>
<path d="M9.95066 19.3711L10.8562 21.2646L12.9011 20.792L11.9854 22.6806L13.6298 23.9846L11.5824 24.4461L11.5881 26.545L9.95066 25.2319L8.31329 26.545L8.31903 24.4461L6.27148 23.9846L7.91601 22.6806L7.00013 20.792L9.04516 21.2646L9.95066 19.3711Z" fill="#F0F0F0"/>
<path d="M24.7028 22.957L25.1556 23.9038L26.1781 23.6674L25.7202 24.6117L26.5425 25.2638L25.5187 25.4946L25.5215 26.544L24.7028 25.8874L23.8842 26.544L23.887 25.4946L22.8633 25.2638L23.6855 24.6117L23.2276 23.6674L24.2501 23.9038L24.7028 22.957Z" fill="#F0F0F0"/>
<path d="M20.492 12.9141L20.9447 13.8609L21.9672 13.6245L21.5093 14.5688L22.3315 15.2208L21.3078 15.4516L21.3106 16.501L20.492 15.8444L19.6733 16.501L19.6761 15.4516L18.6523 15.2208L19.4746 14.5688L19.0167 13.6245L20.0392 13.8609L20.492 12.9141Z" fill="#F0F0F0"/>
<path d="M24.7028 7.17578L25.1556 8.1226L26.1781 7.88625L25.7202 8.83055L26.5424 9.48256L25.5187 9.71337L25.5215 10.7628L24.7028 10.1062L23.8842 10.7628L23.887 9.71337L22.8633 9.48256L23.6854 8.83055L23.2276 7.88625L24.2501 8.1226L24.7028 7.17578Z" fill="#F0F0F0"/>
<path d="M28.3826 11.4805L28.8353 12.4273L29.8578 12.1909L29.3999 13.1352L30.2221 13.7872L29.1984 14.0181L29.2012 15.0674L28.3826 14.4109L27.5639 15.0674L27.5667 14.0181L26.543 13.7872L27.3652 13.1352L26.9073 12.1909L27.9297 12.4273L28.3826 11.4805Z" fill="#F0F0F0"/>
<path d="M25.7508 16.5L26.1069 17.5961H27.2595L26.3271 18.2736L26.6833 19.3696L25.7508 18.6922L24.8185 19.3696L25.1746 18.2736L24.2422 17.5961H25.3947L25.7508 16.5Z" fill="#F0F0F0"/>
</g>
<defs>
<clipPath id="clip0_371_6117">
<rect width="33" height="33" fill="white"/>
</clipPath>
</defs>
</svg>
