<svg width="33" height="33" viewBox="0 0 33 33" fill="none" xmlns="http://www.w3.org/2000/svg">
<g clip-path="url(#clip0_371_6133)">
<path d="M16.5 33C25.6127 33 33 25.6127 33 16.5C33 7.3873 25.6127 0 16.5 0C7.3873 0 0 7.3873 0 16.5C0 25.6127 7.3873 33 16.5 33Z" fill="#6DA544"/>
<path d="M16.4996 6.45703L30.13 16.5005L16.4996 26.544L2.86914 16.5005L16.4996 6.45703Z" fill="#FFDA44"/>
<path d="M16.5008 22.2399C19.6704 22.2399 22.2399 19.6704 22.2399 16.5008C22.2399 13.3312 19.6704 10.7617 16.5008 10.7617C13.3312 10.7617 10.7617 13.3312 10.7617 16.5008C10.7617 19.6704 13.3312 22.2399 16.5008 22.2399Z" fill="#F0F0F0"/>
<path d="M13.6314 16.1406C12.6334 16.1406 11.6703 16.2924 10.7637 16.5741C10.8038 19.7091 13.3564 22.2385 16.501 22.2385C18.4454 22.2385 20.1627 21.2706 21.2008 19.7913C19.4247 17.5679 16.6918 16.1406 13.6314 16.1406Z" fill="#0052B4"/>
<path d="M22.1332 17.6004C22.2023 17.2443 22.2396 16.877 22.2396 16.5008C22.2396 13.3311 19.6701 10.7617 16.5005 10.7617C14.1355 10.7617 12.1052 12.1926 11.2266 14.2357C12.0032 14.0747 12.8073 13.99 13.631 13.99C16.9643 13.9899 19.9798 15.3755 22.1332 17.6004Z" fill="#0052B4"/>
</g>
<defs>
<clipPath id="clip0_371_6133">
<rect width="33" height="33" fill="white"/>
</clipPath>
</defs>
</svg>
