<svg width="33" height="33" viewBox="0 0 33 33" fill="none" xmlns="http://www.w3.org/2000/svg">
<g clip-path="url(#clip0_371_6140)">
<path d="M16.5 33C25.6127 33 33 25.6127 33 16.5C33 7.3873 25.6127 0 16.5 0C7.3873 0 0 7.3873 0 16.5C0 25.6127 7.3873 33 16.5 33Z" fill="#F0F0F0"/>
<path d="M32.9999 16.4995C32.9999 9.95787 29.193 4.30559 23.6738 1.63672V31.3622C29.193 28.6934 32.9999 23.0411 32.9999 16.4995Z" fill="#D80027"/>
<path d="M0 16.4995C0 23.0411 3.80692 28.6934 9.32611 31.3622V1.63672C3.80692 4.30559 0 9.95787 0 16.4995Z" fill="#D80027"/>
<path d="M19.3704 18.6505L22.2399 17.2157L20.8052 16.4983V15.0635L17.9356 16.4983L19.3704 13.6287H17.9356L16.5008 11.4766L15.066 13.6287H13.6312L15.066 16.4983L12.1964 15.0635V16.4983L10.7617 17.2157L13.6312 18.6505L12.9139 20.0852H15.7835V22.2374H17.2182V20.0852H20.0878L19.3704 18.6505Z" fill="#D80027"/>
</g>
<defs>
<clipPath id="clip0_371_6140">
<rect width="33" height="33" fill="white"/>
</clipPath>
</defs>
</svg>
