<svg width="33" height="33" viewBox="0 0 33 33" fill="none" xmlns="http://www.w3.org/2000/svg">
<g clip-path="url(#clip0_371_6146)">
<path d="M16.5 33C25.6127 33 33 25.6127 33 16.5C33 7.3873 25.6127 0 16.5 0C7.3873 0 0 7.3873 0 16.5C0 25.6127 7.3873 33 16.5 33Z" fill="#D80027"/>
<path d="M9.02891 10.043L10.4533 14.4258H15.0617L11.3363 17.1393L12.7607 21.5221L9.02891 18.815L5.29707 21.5221L6.72793 17.1393L2.99609 14.4258H7.60449L9.02891 10.043Z" fill="#FFDA44"/>
<path d="M19.5604 25.5572L18.4711 24.2166L16.8598 24.8418L17.7943 23.3916L16.7051 22.0445L18.3744 22.4893L19.3154 21.0391L19.4057 22.7664L21.0814 23.2111L19.4637 23.8299L19.5604 25.5572Z" fill="#FFDA44"/>
<path d="M21.726 21.6256L22.2416 19.9756L20.8301 18.9766L22.5574 18.9508L23.0666 17.3008L23.6273 18.9379L25.3547 18.9186L23.9689 19.9498L24.5232 21.5869L23.1117 20.5879L21.726 21.6256Z" fill="#FFDA44"/>
<path d="M24.6451 12.1105L23.8846 13.6639L25.1221 14.8691L23.4141 14.6242L22.6535 16.1711L22.357 14.4695L20.6426 14.2246L22.1766 13.4189L21.8801 11.7109L23.1176 12.9162L24.6451 12.1105Z" fill="#FFDA44"/>
<path d="M19.6053 7.40625L19.4764 9.12715L21.0813 9.77813L19.399 10.1906L19.2766 11.918L18.3678 10.4484L16.6855 10.8609L17.8006 9.53965L16.8854 8.07656L18.4902 8.72754L19.6053 7.40625Z" fill="#FFDA44"/>
</g>
<defs>
<clipPath id="clip0_371_6146">
<rect width="33" height="33" fill="white"/>
</clipPath>
</defs>
</svg>
