<svg width="33" height="33" viewBox="0 0 33 33" fill="none" xmlns="http://www.w3.org/2000/svg">
<g clip-path="url(#clip0_371_6154)">
<path d="M16.5 33C25.6127 33 33 25.6127 33 16.5C33 7.3873 25.6127 0 16.5 0C7.3873 0 0 7.3873 0 16.5C0 25.6127 7.3873 33 16.5 33Z" fill="#0052B4"/>
<path d="M16.5012 6.45703L17.0355 8.10117H18.7641L17.3655 9.11727L17.8998 10.7614L16.5012 9.74524L15.1026 10.7614L15.6368 9.11727L14.2383 8.10117H15.967L16.5012 6.45703Z" fill="#FFDA44"/>
<path d="M9.39838 9.39844L10.9388 10.1832L12.1612 8.96094L11.8907 10.6683L13.431 11.4531L11.7236 11.7236L11.4531 13.4311L10.6683 11.8907L8.96094 12.1612L10.1833 10.9389L9.39838 9.39844Z" fill="#FFDA44"/>
<path d="M6.45703 16.5012L8.10117 15.967V14.2383L9.1172 15.6369L10.7614 15.1027L9.74517 16.5012L10.7614 17.8998L9.1172 17.3656L8.10117 18.7642V17.0355L6.45703 16.5012Z" fill="#FFDA44"/>
<path d="M9.39838 23.6029L10.1832 22.0625L8.96094 20.8401L10.6684 21.1107L11.4531 19.5703L11.7236 21.2777L13.431 21.5482L11.8908 22.333L12.1612 24.0404L10.9388 22.818L9.39838 23.6029Z" fill="#FFDA44"/>
<path d="M16.5012 26.5425L15.9669 24.8984H14.2383L15.6369 23.8823L15.1026 22.2383L16.5012 23.2543L17.8998 22.2383L17.3655 23.8823L18.7641 24.8984H17.0354L16.5012 26.5425Z" fill="#FFDA44"/>
<path d="M23.6028 23.6029L22.0625 22.8181L20.84 24.0405L21.1105 22.333L19.5703 21.5482L21.2777 21.2777L21.5481 19.5703L22.3329 21.1107L24.0403 20.8401L22.8179 22.0626L23.6028 23.6029Z" fill="#FFDA44"/>
<path d="M26.5445 16.5012L24.9003 17.0355V18.7642L23.8842 17.3655L22.2402 17.8998L23.2563 16.5012L22.2402 15.1027L23.8843 15.6369L24.9003 14.2383V15.967L26.5445 16.5012Z" fill="#FFDA44"/>
<path d="M23.6028 9.39838L22.818 10.9388L24.0403 12.1612L22.3328 11.8906L21.5481 13.431L21.2777 11.7235L19.5703 11.453L21.1105 10.6682L20.84 8.96094L22.0625 10.1832L23.6028 9.39838Z" fill="#FFDA44"/>
</g>
<defs>
<clipPath id="clip0_371_6154">
<rect width="33" height="33" fill="white"/>
</clipPath>
</defs>
</svg>
