<svg width="33" height="33" viewBox="0 0 33 33" fill="none" xmlns="http://www.w3.org/2000/svg">
<g clip-path="url(#clip0_371_6205)">
<path d="M16.5 33C25.6127 33 33 25.6127 33 16.5C33 7.3873 25.6127 0 16.5 0C7.3873 0 0 7.3873 0 16.5C0 25.6127 7.3873 33 16.5 33Z" fill="#F0F0F0"/>
<path d="M3.41081 6.45703C2.11472 8.14332 1.13742 10.0869 0.568359 12.1983H9.1521L3.41081 6.45703Z" fill="#0052B4"/>
<path d="M32.4313 12.1983C31.8622 10.0869 30.8848 8.14332 29.5888 6.45703L23.8477 12.1983H32.4313Z" fill="#0052B4"/>
<path d="M0.568359 20.8047C1.13748 22.916 2.11478 24.8596 3.41081 26.5459L9.1519 20.8047H0.568359Z" fill="#0052B4"/>
<path d="M26.5459 3.41282C24.8596 2.11674 22.9161 1.13943 20.8047 0.570312V9.15399L26.5459 3.41282Z" fill="#0052B4"/>
<path d="M6.45508 29.5927C8.14137 30.8887 10.0849 31.8661 12.1963 32.4352V23.8516L6.45508 29.5927Z" fill="#0052B4"/>
<path d="M12.1962 0.570312C10.0849 1.13943 8.1413 2.11674 6.45508 3.41276L12.1962 9.15392V0.570312Z" fill="#0052B4"/>
<path d="M20.8047 32.4352C22.916 31.8661 24.8596 30.8887 26.5459 29.5927L20.8047 23.8516V32.4352Z" fill="#0052B4"/>
<path d="M23.8477 20.8047L29.5888 26.5459C30.8848 24.8597 31.8622 22.916 32.4313 20.8047H23.8477Z" fill="#0052B4"/>
<path d="M32.8603 14.3478H18.6523H18.6522V0.13967C17.9477 0.0479531 17.2294 0 16.5 0C15.7705 0 15.0523 0.0479531 14.3478 0.13967V14.3477V14.3478H0.13967C0.0479531 15.0523 0 15.7706 0 16.5C0 17.2295 0.0479531 17.9477 0.13967 18.6522H14.3477H14.3478V32.8603C15.0523 32.952 15.7705 33 16.5 33C17.2294 33 17.9477 32.9521 18.6522 32.8603V18.6523V18.6522H32.8603C32.952 17.9477 33 17.2295 33 16.5C33 15.7706 32.952 15.0523 32.8603 14.3478Z" fill="#D80027"/>
<path d="M20.8047 20.8048L28.1676 28.1676C28.5062 27.8291 28.8292 27.4752 29.1374 27.1083L22.8338 20.8047H20.8047V20.8048Z" fill="#D80027"/>
<path d="M12.195 20.8047H12.1948L4.83203 28.1675C5.17054 28.5061 5.52445 28.8292 5.89132 29.1374L12.195 22.8336V20.8047Z" fill="#D80027"/>
<path d="M12.196 12.1951V12.195L4.83317 4.83203C4.49454 5.17054 4.1715 5.52445 3.86328 5.89132L10.167 12.195H12.196V12.1951Z" fill="#D80027"/>
<path d="M20.8047 12.1961L28.1676 4.83311C27.8291 4.49447 27.4752 4.17143 27.1083 3.86328L20.8047 10.167V12.1961Z" fill="#D80027"/>
</g>
<defs>
<clipPath id="clip0_371_6205">
<rect width="33" height="33" fill="white"/>
</clipPath>
</defs>
</svg>
