<svg width="33" height="33" viewBox="0 0 33 33" fill="none" xmlns="http://www.w3.org/2000/svg">
<g clip-path="url(#clip0_371_6165)">
<path d="M0 16.4995C0 18.5178 0.363064 20.4511 1.02629 22.2386L16.5 22.956L31.9737 22.2387C32.637 20.4511 33 18.5178 33 16.4995C33 14.4812 32.637 12.5479 31.9737 10.7604L16.5 10.043L1.02629 10.7603C0.363064 12.5479 0 14.4812 0 16.4995H0Z" fill="#FFDA44"/>
<path d="M16.4991 0C9.40468 0 3.35672 4.47769 1.02539 10.7609H31.9729C29.6415 4.47769 23.5935 0 16.4991 0Z" fill="#D80027"/>
<path d="M31.9728 22.2383H1.02539C3.35672 28.5214 9.40468 32.9992 16.4991 32.9992C23.5935 32.9992 29.6415 28.5214 31.9728 22.2383Z" fill="#496E2D"/>
<path d="M16.4992 10.7617L17.9236 15.1458H22.5338L18.8044 17.8556L20.2288 22.2399L16.4992 19.5303L12.7696 22.2399L14.1943 17.8556L10.4648 15.1458H15.0748L16.4992 10.7617Z" fill="black"/>
</g>
<defs>
<clipPath id="clip0_371_6165">
<rect width="33" height="33" fill="white"/>
</clipPath>
</defs>
</svg>
