<svg width="33" height="33" viewBox="0 0 33 33" fill="none" xmlns="http://www.w3.org/2000/svg">
<g clip-path="url(#clip0_371_6170)">
<path d="M16.5 33C25.6127 33 33 25.6127 33 16.5C33 7.3873 25.6127 0 16.5 0C7.3873 0 0 7.3873 0 16.5C0 25.6127 7.3873 33 16.5 33Z" fill="#F0F0F0"/>
<path d="M16.4995 0C9.95787 0 4.30559 3.80692 1.63672 9.32611H31.3622C28.6934 3.80692 23.041 0 16.4995 0Z" fill="black"/>
<path d="M16.4995 33.0019C9.95787 33.0019 4.30559 29.195 1.63672 23.6758H31.3622C28.6934 29.195 23.041 33.0019 16.4995 33.0019Z" fill="#496E2D"/>
<path d="M32.2208 11.4766H0.779174C0.273732 13.0601 0 14.7472 0 16.4983C0 18.2494 0.273732 19.9365 0.779174 21.52H32.2208C32.7263 19.9365 33 18.2494 33 16.4983C33 14.7472 32.7263 13.0601 32.2208 11.4766Z" fill="#A2001D"/>
<path d="M21.6371 7.62455L19.6831 6.72266L16.4992 13.9318L13.3154 6.72266L11.3613 7.62455L15.3141 16.4997L11.3613 25.3748L13.3154 26.2767L16.4992 19.0676L19.6831 26.2767L21.6371 25.3748L17.6843 16.4997L21.6371 7.62455Z" fill="#F0F0F0"/>
<path d="M17.8262 8.47286C17.0698 7.64677 16.499 7.17188 16.499 7.17188C16.499 7.17188 15.9283 7.6467 15.1719 8.47286V24.523C15.9283 25.3492 16.499 25.8241 16.499 25.8241C16.499 25.8241 17.0698 25.3493 17.8262 24.523V8.47286Z" fill="#F0F0F0"/>
<path d="M12.9121 11.554V21.4483C13.7115 22.8646 14.6898 24.0256 15.423 24.7953V8.20703C14.6898 8.97667 13.7114 10.1377 12.9121 11.554Z" fill="#A2001D"/>
<path d="M20.0851 11.554C19.2857 10.1376 18.3074 8.97667 17.5742 8.20703V24.7953C18.3074 24.0256 19.2857 22.8646 20.0851 21.4483V11.554Z" fill="#A2001D"/>
<path d="M20.0879 11.5547V21.449C20.8971 20.015 21.5227 18.3193 21.5227 16.5019C21.5227 14.6845 20.8971 12.9888 20.0879 11.5547Z" fill="black"/>
<path d="M12.9133 11.5547V21.449C12.1041 20.015 11.4785 18.3193 11.4785 16.5019C11.4785 14.6845 12.1041 12.9888 12.9133 11.5547Z" fill="black"/>
</g>
<defs>
<clipPath id="clip0_371_6170">
<rect width="33" height="33" fill="white"/>
</clipPath>
</defs>
</svg>
