<svg width="33" height="33" viewBox="0 0 33 33" fill="none" xmlns="http://www.w3.org/2000/svg">
<g clip-path="url(#clip0_371_6183)">
<path d="M16.5 33C25.6127 33 33 25.6127 33 16.5C33 7.3873 25.6127 0 16.5 0C7.3873 0 0 7.3873 0 16.5C0 25.6127 7.3873 33 16.5 33Z" fill="#F0F0F0"/>
<path d="M0 16.501C0 23.5955 4.47769 29.6434 10.7609 31.9748V1.02734C4.47769 3.35861 0 9.40664 0 16.501Z" fill="#6DA544"/>
<path d="M32.9992 16.501C32.9992 9.40664 28.5215 3.35861 22.2383 1.02734V31.9748C28.5215 29.6434 32.9992 23.5955 32.9992 16.501Z" fill="#6DA544"/>
</g>
<defs>
<clipPath id="clip0_371_6183">
<rect width="33" height="33" fill="white"/>
</clipPath>
</defs>
</svg>
