<svg width="33" height="33" viewBox="0 0 33 33" fill="none" xmlns="http://www.w3.org/2000/svg">
<g clip-path="url(#clip0_377_6596)">
<path d="M0 16.5012C0 19.3597 0.727225 22.0483 2.00623 24.3925L16.5 25.8273L30.9938 24.3925C32.2728 22.0483 33 19.3597 33 16.5012L16.5 15.0664L0 16.5012Z" fill="#FFDA44"/>
<path d="M30.9938 8.60868C28.1953 3.47976 22.7542 0 16.5 0C10.2458 0 4.80472 3.47976 2.00623 8.60868C0.727225 10.9529 0 13.6415 0 16.5H33C33 13.6415 32.2728 10.9529 30.9938 8.60868Z" fill="#338AF3"/>
<path d="M16.4996 32.9993C22.7538 32.9993 28.1949 29.5195 30.9934 24.3906H2.00586C4.80435 29.5195 10.2454 32.9993 16.4996 32.9993Z" fill="#496E2D"/>
<path d="M18.6523 9.65613L20.6675 10.604L19.5945 12.5557L21.7826 12.1371L22.0599 14.3475L23.584 12.7218L25.1082 14.3475L25.3854 12.1371L27.5736 12.5556L26.5005 10.604L28.5156 9.65613L26.5005 8.70835L27.5736 6.7567L25.3854 7.17526L25.1081 4.96484L23.584 6.59061L22.0599 4.96484L21.7826 7.17526L19.5944 6.7567L20.6675 8.70841L18.6523 9.65613Z" fill="#FFDA44"/>
</g>
<defs>
<clipPath id="clip0_377_6596">
<rect width="33" height="33" fill="white"/>
</clipPath>
</defs>
</svg>
