<svg width="33" height="33" viewBox="0 0 33 33" fill="none" xmlns="http://www.w3.org/2000/svg">
<g clip-path="url(#clip0_371_6200)">
<path d="M16.5 33C25.6127 33 33 25.6127 33 16.5C33 7.3873 25.6127 0 16.5 0C7.3873 0 0 7.3873 0 16.5C0 25.6127 7.3873 33 16.5 33Z" fill="#D80027"/>
<path d="M15.8248 13.4844L17.1787 15.35L19.3712 14.6391L18.0152 16.503L19.3689 18.3686L17.1771 17.6549L15.8212 19.5189L15.8227 17.214L13.6309 16.5004L15.8234 15.7895L15.8248 13.4844Z" fill="#F0F0F0"/>
<path d="M12.1302 21.1639C9.55494 21.1639 7.46717 19.0762 7.46717 16.5009C7.46717 13.9256 9.55494 11.8378 12.1302 11.8378C12.9332 11.8378 13.6887 12.0409 14.3483 12.3983C13.3135 11.3863 11.8983 10.7617 10.3368 10.7617C7.16708 10.7617 4.59766 13.3312 4.59766 16.5008C4.59766 19.6704 7.16714 22.2399 10.3368 22.2399C11.8985 22.2399 13.3136 21.6153 14.3483 20.6033C13.6887 20.9608 12.9332 21.1639 12.1302 21.1639Z" fill="#F0F0F0"/>
</g>
<defs>
<clipPath id="clip0_371_6200">
<rect width="33" height="33" fill="white"/>
</clipPath>
</defs>
</svg>
