<svg width="33" height="33" viewBox="0 0 33 33" fill="none" xmlns="http://www.w3.org/2000/svg">
<g clip-path="url(#clip0_371_6195)">
<path d="M16.5 33C25.6127 33 33 25.6127 33 16.5C33 7.3873 25.6127 0 16.5 0C7.3873 0 0 7.3873 0 16.5C0 25.6127 7.3873 33 16.5 33Z" fill="#FFDA44"/>
<path d="M4.83324 28.1678C5.5254 28.86 6.2639 29.4773 7.03857 30.0207L30.0206 7.03863C29.4773 6.26397 28.8599 5.52547 28.1678 4.8333C27.4756 4.14114 26.7371 3.52394 25.9625 2.98047L2.98047 25.9626C3.52381 26.7371 4.14114 27.4756 4.83324 28.1678Z" fill="black"/>
<path d="M4.83206 4.83198C-0.373306 10.0375 -1.37265 17.8551 1.83215 24.0647L24.0647 1.83214C17.8551 -1.37267 10.0375 -0.373255 4.83206 4.83198Z" fill="#6DA544"/>
<path d="M28.1682 28.1663C33.3735 22.9609 34.3728 15.1432 31.1681 8.93359L8.93555 31.1662C15.145 34.371 22.9627 33.3716 28.1682 28.1663Z" fill="#338AF3"/>
</g>
<defs>
<clipPath id="clip0_371_6195">
<rect width="33" height="33" fill="white"/>
</clipPath>
</defs>
</svg>
