<svg width="33" height="33" viewBox="0 0 33 33" fill="none" xmlns="http://www.w3.org/2000/svg">
<g clip-path="url(#clip0_371_6188)">
<path d="M16.5 33C25.6127 33 33 25.6127 33 16.5C33 7.3873 25.6127 0 16.5 0C7.3873 0 0 7.3873 0 16.5C0 25.6127 7.3873 33 16.5 33Z" fill="#F0F0F0"/>
<path d="M4.83273 28.1666C-1.61091 21.7229 -1.61091 11.2757 4.83273 4.83203C4.83228 4.83274 14.3479 16.4993 14.3479 16.4993L4.83273 28.1666Z" fill="black"/>
<path d="M14.3479 16.4982L2.18845 8.28125C1.81146 8.93654 1.47902 9.62052 1.19336 10.3285L7.34921 16.4983L1.19355 22.6683C1.47895 23.3758 1.81108 24.0593 2.18781 24.7142L14.3479 16.4982Z" fill="#FFDA44"/>
<path d="M32.8601 14.3469H14.3472L4.83233 4.83203C3.80701 5.85735 2.91621 7.01693 2.18814 8.28221L10.3891 16.4991L2.1875 24.7149C2.91556 25.9805 3.80676 27.1405 4.83233 28.1661L14.3472 18.6512H32.8601C32.9518 17.9468 32.9998 17.2285 32.9998 16.4991C32.9998 15.7697 32.9518 15.0514 32.8601 14.3469Z" fill="#6DA544"/>
<path d="M6.45508 29.5893C9.23745 31.7279 12.7203 33.0003 16.5009 33.0003C24.1243 33.0003 30.5391 27.8298 32.4325 20.8047H15.2397L6.45508 29.5893Z" fill="#0052B4"/>
<path d="M32.4325 12.1956C30.5391 5.17049 24.1243 0 16.5009 0C12.7203 0 9.23745 1.27237 6.45508 3.41105L15.2397 12.1956H32.4325Z" fill="#D80027"/>
</g>
<defs>
<clipPath id="clip0_371_6188">
<rect width="33" height="33" fill="white"/>
</clipPath>
</defs>
</svg>
