<svg width="24" height="25" viewBox="0 0 24 25" fill="none" xmlns="http://www.w3.org/2000/svg">
<g clip-path="url(#clip0_1_1640)">
<path d="M12 24.5C18.6274 24.5 24 19.1274 24 12.5C24 5.87258 18.6274 0.5 12 0.5C5.37258 0.5 0 5.87258 0 12.5C0 19.1274 5.37258 24.5 12 24.5Z" fill="#D80027"/>
<path d="M6.56719 7.80469L7.60312 10.9922H10.9547L8.24531 12.9656L9.28125 16.1531L6.56719 14.1844L3.85313 16.1531L4.89375 12.9656L2.17969 10.9922H5.53125L6.56719 7.80469Z" fill="#FFDA44"/>
<path d="M14.227 19.0867L13.4348 18.1117L12.2629 18.5664L12.9426 17.5117L12.1504 16.532L13.3645 16.8555L14.0488 15.8008L14.1145 17.057L15.3332 17.3805L14.1566 17.8305L14.227 19.0867Z" fill="#FFDA44"/>
<path d="M15.802 16.2273L16.177 15.0273L15.1504 14.3008L16.4066 14.282L16.777 13.082L17.1848 14.2727L18.441 14.2586L17.4332 15.0086L17.8363 16.1992L16.8098 15.4727L15.802 16.2273Z" fill="#FFDA44"/>
<path d="M17.9246 9.3082L17.3715 10.4379L18.2715 11.3145L17.0293 11.1363L16.4762 12.2613L16.2605 11.0238L15.0137 10.8457L16.1293 10.2598L15.9137 9.01758L16.8137 9.89414L17.9246 9.3082Z" fill="#FFDA44"/>
<path d="M14.2602 5.88672L14.1664 7.13828L15.3336 7.61172L14.1102 7.91172L14.0211 9.16797L13.3602 8.09922L12.1367 8.39922L12.9477 7.43828L12.282 6.37422L13.4492 6.84766L14.2602 5.88672Z" fill="#FFDA44"/>
</g>
<defs>
<clipPath id="clip0_1_1640">
<rect width="24" height="24" fill="white" transform="translate(0 0.5)"/>
</clipPath>
</defs>
</svg>
