<svg width="24" height="25" viewBox="0 0 24 25" fill="none" xmlns="http://www.w3.org/2000/svg">
<g clip-path="url(#clip0_1_1650)">
<path d="M12 24.5C18.6274 24.5 24 19.1274 24 12.5C24 5.87258 18.6274 0.5 12 0.5C5.37258 0.5 0 5.87258 0 12.5C0 19.1274 5.37258 24.5 12 24.5Z" fill="#F0F0F0"/>
<path d="M23.9999 12.4997C23.9999 7.34013 20.7434 2.94161 16.1738 1.24609V23.7534C20.7434 22.0578 23.9999 17.6593 23.9999 12.4997V12.4997Z" fill="#D80027"/>
<path d="M0 12.4997C0 17.6593 3.25655 22.0578 7.82611 23.7533V1.24609C3.25655 2.94161 0 7.34013 0 12.4997Z" fill="#0052B4"/>
</g>
<defs>
<clipPath id="clip0_1_1650">
<rect width="24" height="24" fill="white" transform="translate(0 0.5)"/>
</clipPath>
</defs>
</svg>
