<svg width="24" height="25" viewBox="0 0 24 25" fill="none" xmlns="http://www.w3.org/2000/svg">
<g clip-path="url(#clip0_1_1655)">
<path d="M0.746094 16.6743C2.44161 21.2439 6.84013 24.5004 11.9997 24.5004C17.1593 24.5004 21.5578 21.2439 23.2533 16.6743L11.9997 15.6309L0.746094 16.6743Z" fill="#FFDA44"/>
<path d="M11.9997 0.5C6.84013 0.5 2.44161 3.7565 0.746094 8.32611L11.9997 9.36955L23.2533 8.32606C21.5578 3.7565 17.1593 0.5 11.9997 0.5Z" fill="black"/>
<path d="M0.746391 8.32617C0.264047 9.62616 0 11.0322 0 12.5001C0 13.9679 0.264047 15.374 0.746391 16.674H23.2537C23.736 15.374 24 13.9679 24 12.5001C24 11.0322 23.736 9.62616 23.2536 8.32617H0.746391Z" fill="#D80027"/>
</g>
<defs>
<clipPath id="clip0_1_1655">
<rect width="24" height="24" fill="white" transform="translate(0 0.5)"/>
</clipPath>
</defs>
</svg>
