<svg width="24" height="25" viewBox="0 0 24 25" fill="none" xmlns="http://www.w3.org/2000/svg">
<g clip-path="url(#clip0_1_1660)">
<path d="M12 24.5C18.6274 24.5 24 19.1274 24 12.5C24 5.87258 18.6274 0.5 12 0.5C5.37258 0.5 0 5.87258 0 12.5C0 19.1274 5.37258 24.5 12 24.5Z" fill="#F0F0F0"/>
<path d="M12.0007 0.5C7.24316 0.5 3.13241 3.26867 1.19141 7.28262H22.8099C20.869 3.26867 16.7582 0.5 12.0007 0.5V0.5Z" fill="#FF9811"/>
<path d="M12.0007 24.4994C16.7582 24.4994 20.869 21.7307 22.81 17.7168H1.19141C3.13241 21.7307 7.24316 24.4994 12.0007 24.4994Z" fill="#6DA544"/>
<path d="M12.0001 16.674C14.3052 16.674 16.174 14.8052 16.174 12.5001C16.174 10.1949 14.3052 8.32617 12.0001 8.32617C9.69489 8.32617 7.82617 10.1949 7.82617 12.5001C7.82617 14.8052 9.69489 16.674 12.0001 16.674Z" fill="#0052B4"/>
<path d="M11.9993 15.108C13.4401 15.108 14.608 13.9401 14.608 12.4993C14.608 11.0586 13.4401 9.89062 11.9993 9.89062C10.5586 9.89062 9.39062 11.0586 9.39062 12.4993C9.39062 13.9401 10.5586 15.108 11.9993 15.108Z" fill="#F0F0F0"/>
<path d="M12.0007 9.28125L12.8055 11.1065L14.7885 10.8908L13.6102 12.5003L14.7885 14.1099L12.8055 13.8942L12.0007 15.7194L11.1959 13.8942L9.21289 14.1098L10.3911 12.5003L9.21289 10.8908L11.1959 11.1065L12.0007 9.28125Z" fill="#0052B4"/>
</g>
<defs>
<clipPath id="clip0_1_1660">
<rect width="24" height="24" fill="white" transform="translate(0 0.5)"/>
</clipPath>
</defs>
</svg>
