<svg width="24" height="25" viewBox="0 0 24 25" fill="none" xmlns="http://www.w3.org/2000/svg">
<g clip-path="url(#clip0_1_1665)">
<path d="M0 12.4997C0 17.6592 3.2565 22.0577 7.82602 23.7533L8.86955 12.4997L7.82602 1.24609C3.2565 2.94166 0 7.34012 0 12.4997Z" fill="#6DA544"/>
<path d="M24.0002 12.5C24.0002 5.87262 18.6275 0.5 12.0002 0.5C10.5323 0.5 9.1262 0.764047 7.82617 1.24639V23.7536C9.1262 24.236 10.5323 24.5 12.0002 24.5C18.6275 24.5 24.0002 19.1274 24.0002 12.5Z" fill="#D80027"/>
<path d="M7.82623 16.674C10.1314 16.674 12.0001 14.8052 12.0001 12.5001C12.0001 10.1949 10.1314 8.32617 7.82623 8.32617C5.52106 8.32617 3.65234 10.1949 3.65234 12.5001C3.65234 14.8052 5.52106 16.674 7.82623 16.674Z" fill="#FFDA44"/>
<path d="M5.47852 10.4121V13.0208C5.47852 14.3175 6.52964 15.3686 7.82634 15.3686C9.12305 15.3686 10.1742 14.3175 10.1742 13.0208V10.4121H5.47852Z" fill="#D80027"/>
<path d="M7.82559 13.8046C7.39406 13.8046 7.04297 13.4535 7.04297 13.022V11.9785H8.60817V13.022C8.60817 13.4535 8.25708 13.8046 7.82559 13.8046Z" fill="#F0F0F0"/>
</g>
<defs>
<clipPath id="clip0_1_1665">
<rect width="24" height="24" fill="white" transform="translate(0 0.5)"/>
</clipPath>
</defs>
</svg>
