<svg width="24" height="25" viewBox="0 0 24 25" fill="none" xmlns="http://www.w3.org/2000/svg">
<g clip-path="url(#clip0_1_1670)">
<path d="M12 24.5C18.6274 24.5 24 19.1274 24 12.5C24 5.87258 18.6274 0.5 12 0.5C5.37258 0.5 0 5.87258 0 12.5C0 19.1274 5.37258 24.5 12 24.5Z" fill="#F0F0F0"/>
<path d="M23.2536 16.674C23.736 15.374 24 13.9679 24 12.5001C24 11.0322 23.736 9.62616 23.2536 8.32617H0.746391C0.264047 9.62616 0 11.0322 0 12.5001C0 13.9679 0.264047 15.374 0.746391 16.674L12 17.7174L23.2536 16.674Z" fill="#0052B4"/>
<path d="M11.9997 24.4999C17.1593 24.4999 21.5578 21.2434 23.2533 16.6738H0.746094C2.44161 21.2434 6.84013 24.4999 11.9997 24.4999Z" fill="#D80027"/>
</g>
<defs>
<clipPath id="clip0_1_1670">
<rect width="24" height="24" fill="white" transform="translate(0 0.5)"/>
</clipPath>
</defs>
</svg>
