<svg width="24" height="25" viewBox="0 0 24 25" fill="none" xmlns="http://www.w3.org/2000/svg">
<g clip-path="url(#clip0_1_1675)">
<path d="M0 12.5006C0 13.9684 0.264047 15.3745 0.746391 16.6745L12 17.718L23.2536 16.6745C23.736 15.3745 24 13.9684 24 12.5006C24 11.0327 23.736 9.62667 23.2536 8.32669L12 7.2832L0.746391 8.32669C0.264047 9.62667 0 11.0327 0 12.5006H0Z" fill="#FFDA44"/>
<path d="M23.2533 8.32611C21.5578 3.75655 17.1593 0.5 11.9997 0.5C6.84013 0.5 2.44161 3.75655 0.746094 8.32611H23.2533Z" fill="#D80027"/>
<path d="M0.746094 16.6738C2.44161 21.2434 6.84013 24.4999 11.9997 24.4999C17.1593 24.4999 21.5578 21.2434 23.2533 16.6738H0.746094Z" fill="#D80027"/>
</g>
<defs>
<clipPath id="clip0_1_1675">
<rect width="24" height="24" fill="white" transform="translate(0 0.5)"/>
</clipPath>
</defs>
</svg>
