<svg width="24" height="25" viewBox="0 0 24 25" fill="none" xmlns="http://www.w3.org/2000/svg">
<g clip-path="url(#clip0_1_1680)">
<path d="M12 24.5C18.6274 24.5 24 19.1274 24 12.5C24 5.87258 18.6274 0.5 12 0.5C5.37258 0.5 0 5.87258 0 12.5C0 19.1274 5.37258 24.5 12 24.5Z" fill="#D80027"/>
<path d="M11.5097 10.3066L12.4943 11.6634L14.0888 11.1464L13.1027 12.502L14.0872 13.8588L12.4932 13.3398L11.5071 14.6954L11.5081 13.0191L9.91406 12.5001L11.5087 11.9831L11.5097 10.3066Z" fill="#F0F0F0"/>
<path d="M8.82198 15.8914C6.94905 15.8914 5.43067 14.373 5.43067 12.5001C5.43067 10.6272 6.94905 9.1088 8.82198 9.1088C9.40595 9.1088 9.95542 9.2565 10.4351 9.51642C9.68256 8.78039 8.65333 8.32617 7.51764 8.32617C5.21242 8.32617 3.34375 10.1949 3.34375 12.5001C3.34375 14.8052 5.21247 16.674 7.51764 16.674C8.65342 16.674 9.68261 16.2197 10.4351 15.4837C9.95542 15.7437 9.40595 15.8914 8.82198 15.8914Z" fill="#F0F0F0"/>
</g>
<defs>
<clipPath id="clip0_1_1680">
<rect width="24" height="24" fill="white" transform="translate(0 0.5)"/>
</clipPath>
</defs>
</svg>
