<svg width="24" height="25" viewBox="0 0 24 25" fill="none" xmlns="http://www.w3.org/2000/svg">
<g clip-path="url(#clip0_1_1645)">
<path d="M12 24.5C18.6274 24.5 24 19.1274 24 12.5C24 5.87258 18.6274 0.5 12 0.5C5.37258 0.5 0 5.87258 0 12.5C0 19.1274 5.37258 24.5 12 24.5Z" fill="#F0F0F0"/>
<path d="M2.4813 5.19531C1.53869 6.4217 0.827922 7.83522 0.414062 9.3708H6.65678L2.4813 5.19531Z" fill="#0052B4"/>
<path d="M23.5864 9.37075C23.1725 7.83522 22.4617 6.4217 21.5191 5.19531L17.3438 9.37075H23.5864Z" fill="#0052B4"/>
<path d="M0.414062 15.6309C0.827969 17.1664 1.53873 18.5799 2.4813 19.8063L6.65664 15.6309H0.414062Z" fill="#0052B4"/>
<path d="M19.3063 2.98134C18.0799 2.03873 16.6664 1.32797 15.1309 0.914062V7.15673L19.3063 2.98134Z" fill="#0052B4"/>
<path d="M4.69531 22.0191C5.9217 22.9617 7.33522 23.6725 8.87075 24.0864V17.8438L4.69531 22.0191Z" fill="#0052B4"/>
<path d="M8.8707 0.914062C7.33517 1.32797 5.92166 2.03873 4.69531 2.9813L8.8707 7.15669V0.914062Z" fill="#0052B4"/>
<path d="M15.1309 24.0864C16.6664 23.6725 18.0799 22.9617 19.3063 22.0191L15.1309 17.8438V24.0864Z" fill="#0052B4"/>
<path d="M17.3438 15.6309L21.5191 19.8063C22.4617 18.58 23.1725 17.1664 23.5864 15.6309H17.3438Z" fill="#0052B4"/>
<path d="M23.8984 10.9348H13.5653H13.5653V0.601578C13.0529 0.534875 12.5305 0.5 12 0.5C11.4694 0.5 10.9471 0.534875 10.4348 0.601578V10.9347V10.9347H0.101578C0.034875 11.4471 0 11.9695 0 12.5C0 13.0306 0.034875 13.5529 0.101578 14.0652H10.4347H10.4347V24.3984C10.9471 24.4651 11.4694 24.5 12 24.5C12.5305 24.5 13.0529 24.4652 13.5652 24.3984V14.0653V14.0653H23.8984C23.9651 13.5529 24 13.0306 24 12.5C24 11.9695 23.9651 11.4471 23.8984 10.9348Z" fill="#D80027"/>
<path d="M15.1309 15.6309L20.4857 20.9857C20.732 20.7395 20.9669 20.4821 21.191 20.2153L16.6066 15.6309H15.1309V15.6309Z" fill="#D80027"/>
<path d="M8.87048 15.6309H8.87039L3.51562 20.9856C3.76181 21.2319 4.0192 21.4668 4.28602 21.691L8.87048 17.1064V15.6309Z" fill="#D80027"/>
<path d="M8.86878 9.37058V9.37048L3.51397 4.01562C3.26769 4.26181 3.03275 4.5192 2.80859 4.78602L7.39311 9.37053H8.86878V9.37058Z" fill="#D80027"/>
<path d="M15.1309 9.36883L20.4857 4.01392C20.2395 3.76764 19.9821 3.5327 19.7153 3.30859L15.1309 7.89311V9.36883Z" fill="#D80027"/>
</g>
<defs>
<clipPath id="clip0_1_1645">
<rect width="24" height="24" fill="white" transform="translate(0 0.5)"/>
</clipPath>
</defs>
</svg>
