<svg width="25" height="25" viewBox="0 0 25 25" fill="none" xmlns="http://www.w3.org/2000/svg">
<path d="M12.195 24.39C18.9301 24.39 24.39 18.9301 24.39 12.195C24.39 5.45989 18.9301 0 12.195 0C5.45989 0 0 5.45989 0 12.195C0 18.9301 5.45989 24.39 12.195 24.39Z" fill="white"/>
<path d="M12.1939 0C7.35907 0 3.18153 2.81366 1.20898 6.89284H23.1788C21.2063 2.81366 17.0287 0 12.1939 0Z" fill="#74ACDF"/>
<path d="M12.1939 24.3889C17.0287 24.3889 21.2063 21.5753 23.1788 17.4961H1.20898C3.18153 21.5753 7.35907 24.3889 12.1939 24.3889Z" fill="#74ACDF"/>
<path d="M15.8406 12.1958L14.3513 12.8964L15.1444 14.3388L13.5271 14.0294L13.3222 15.6632L12.1957 14.4616L11.0692 15.6632L10.8643 14.0294L9.24704 14.3388L10.0401 12.8964L8.55078 12.1958L10.0401 11.4953L9.24704 10.0529L10.8643 10.3623L11.0692 8.72852L12.1957 9.9301L13.3222 8.72852L13.5271 10.3623L15.1444 10.0529L14.3513 11.4953L15.8406 12.1958Z" fill="#F6B40E"/>
</svg>
