<svg width="33" height="33" viewBox="0 0 33 33" fill="none" xmlns="http://www.w3.org/2000/svg">
<path d="M16.5 33C25.6127 33 33 25.6127 33 16.5C33 7.3873 25.6127 0 16.5 0C7.3873 0 0 7.3873 0 16.5C0 25.6127 7.3873 33 16.5 33Z" fill="#170636"/>
<path d="M25.0032 10.0164L20.75 14.2695L25.0032 18.5227L29.2563 14.2695L25.0032 10.0164Z" fill="#14B23D"/>
<path d="M7.99536 9.99097L3.74219 14.2441L7.99536 18.4973L12.2485 14.2441L7.99536 9.99097Z" fill="#FFC100"/>
<path d="M16.5266 18.5222L12.2734 22.7754L16.5266 27.0286L20.7798 22.7754L16.5266 18.5222Z" fill="#14B23D"/>
<path d="M7.99609 9.99219L16.5299 18.526H25.01L16.4762 9.99219H7.99609Z" fill="url(#paint0_linear_1_20589)"/>
<defs>
<linearGradient id="paint0_linear_1_20589" x1="10.1228" y1="7.8758" x2="13.9011" y2="22.901" gradientUnits="userSpaceOnUse">
<stop stop-color="#FFDC00"/>
<stop offset="1" stop-color="#07E58A"/>
</linearGradient>
</defs>
</svg>
