<svg width="25" height="26" viewBox="0 0 25 26" fill="none" xmlns="http://www.w3.org/2000/svg">
<circle cx="12.195" cy="12.8786" r="12.195" fill="#003399"/>
<path d="M22.7013 12.879C22.7013 18.6823 17.9968 23.3868 12.1934 23.3868C6.39008 23.3868 1.68555 18.6823 1.68555 12.879C1.68555 7.07563 6.39008 2.37109 12.1934 2.37109C17.9968 2.37109 22.7013 7.07563 22.7013 12.879Z" stroke="#FFCC00"/>
<path d="M12.2089 4.57031L12.4412 5.28541H13.1931L12.5848 5.72736L12.8172 6.44246L12.2089 6.00049L11.6005 6.44246L11.8329 5.72736L11.2246 5.28541H11.9765L12.2089 4.57031Z" fill="#FFCC00"/>
<path d="M12.3163 19.3535L12.5486 20.0686H13.3005L12.6922 20.5106L12.9246 21.2257L12.3163 20.7837L11.708 21.2257L11.9403 20.5106L11.332 20.0686H12.0839L12.3163 19.3535Z" fill="#FFCC00"/>
<path d="M15.7694 17.8418L16.0018 18.5569H16.7536L16.1453 18.9988L16.3777 19.7139L15.7694 19.272L15.1611 19.7139L15.3934 18.9988L14.7852 18.5569H15.537L15.7694 17.8418Z" fill="#FFCC00"/>
<path d="M8.53919 17.8418L8.30682 18.5569H7.55497L8.16326 18.9988L7.9309 19.7139L8.53919 19.272L9.14751 19.7139L8.91514 18.9988L9.52344 18.5569H8.77156L8.53919 17.8418Z" fill="#FFCC00"/>
<path d="M18.4686 14.9258L18.701 15.6409H19.4528L18.8445 16.0828L19.0769 16.7979L18.4686 16.356L17.8603 16.7979L18.0927 16.0828L17.4844 15.6409H18.2363L18.4686 14.9258Z" fill="#FFCC00"/>
<path d="M5.84192 14.9258L5.60956 15.6409H4.8577L5.466 16.0828L5.23363 16.7979L5.84192 16.356L6.45025 16.7979L6.21788 16.0828L6.82617 15.6409H6.07429L5.84192 14.9258Z" fill="#FFCC00"/>
<path d="M18.9003 11.2578L19.1326 11.9729H19.8845L19.2762 12.4149L19.5086 13.13L18.9003 12.688L18.2919 13.13L18.5243 12.4149L17.916 11.9729H18.6679L18.9003 11.2578Z" fill="#FFCC00"/>
<path d="M5.41028 11.2578L5.17792 11.9729H4.42606L5.03436 12.4149L4.80199 13.13L5.41028 12.688L6.01861 13.13L5.78624 12.4149L6.39453 11.9729H5.64265L5.41028 11.2578Z" fill="#FFCC00"/>
<path d="M18.4686 7.58789L18.701 8.30299H19.4528L18.8445 8.74494L19.0769 9.46004L18.4686 9.01806L17.8603 9.46004L18.0927 8.74494L17.4844 8.30299H18.2363L18.4686 7.58789Z" fill="#FFCC00"/>
<path d="M5.84192 7.58789L5.60956 8.30299H4.8577L5.466 8.74494L5.23363 9.46004L5.84192 9.01806L6.45025 9.46004L6.21788 8.74494L6.82617 8.30299H6.07429L5.84192 7.58789Z" fill="#FFCC00"/>
<path d="M15.7694 5.64648L16.0018 6.36158H16.7536L16.1453 6.80353L16.3777 7.51863L15.7694 7.07666L15.1611 7.51863L15.3934 6.80353L14.7852 6.36158H15.537L15.7694 5.64648Z" fill="#FFCC00"/>
<path d="M8.53919 5.64648L8.30682 6.36158H7.55497L8.16326 6.80353L7.9309 7.51863L8.53919 7.07666L9.14751 7.51863L8.91514 6.80353L9.52344 6.36158H8.77156L8.53919 5.64648Z" fill="#FFCC00"/>
</svg>
