<svg xmlns="http://www.w3.org/2000/svg" viewBox="0 0 24 24">
  <g>
    <circle cx="12" cy="12" r="11.5" style="fill: #fff"/>
    <path d="M12,1a10.94788,10.94788,0,1,0,7.778,3.222A10.94788,10.94788,0,0,0,12,1m0-1A12,12,0,1,1,0,12,12,12,0,0,1,12,0Z" style="fill: #012169"/>
    <path d="M9.99036,9.99469H2.20166a10.0559,10.0559,0,0,0-.00195,3.99792H9.99036v7.80506a10.04972,10.04972,0,0,0,1.9649.20007h.08948a10.04063,10.04063,0,0,0,1.944-.19684V13.99261h7.81158a10.0559,10.0559,0,0,0-.002-3.99792H13.98871V2.1991a10.05667,10.05667,0,0,0-3.99835.00323Z" style="fill: #cf142b"/>
    <path d="M15.322,2.57709V8.47327l4.74091-2.37091A10.00823,10.00823,0,0,0,15.322,2.57709Z" style="fill: #00247d"/>
    <path d="M8.6571,8.47327V2.58472a10.00832,10.00832,0,0,0-4.7257,3.5252Z" style="fill: #00247d"/>
    <path d="M15.322,21.42291A10.00833,10.00833,0,0,0,20.06415,17.896L15.322,15.52448Z" style="fill: #00247d"/>
    <path d="M8.6571,21.41528v-5.8908L3.93018,17.88837A10.00865,10.00865,0,0,0,8.6571,21.41528Z" style="fill: #00247d"/>
    <path d="M20.44751,6.66467l-3.9942,2.001h2.22052l2.26373-1.13232A9.97151,9.97151,0,0,0,20.44751,6.66467Z" style="fill: #cf142b"/>
    <path d="M20.93433,16.47333a9.924,9.924,0,0,0,.40081-.91144l-.46545-.23279H18.64917Z" style="fill: #cf142b"/>
    <path d="M2.66052,8.45l.44177.22095H5.32281L3.06018,7.538A9.93427,9.93427,0,0,0,2.66052,8.45Z" style="fill: #cf142b"/>
    <path d="M3.058,16.45746a9.95258,9.95258,0,0,0,.4917.87341l3.99689-1.9992H5.30518Z" style="fill: #cf142b"/>
  </g>
</svg>
