<svg width="41" height="41" viewBox="0 0 41 41" fill="none" xmlns="http://www.w3.org/2000/svg">
<path d="M20.9648 40.6679C32.0299 40.6679 40.9999 31.6979 40.9999 20.6328C40.9999 9.56769 32.0299 0.597656 20.9648 0.597656C9.89972 0.597656 0.929688 9.56769 0.929688 20.6328C0.929688 31.6979 9.89972 40.6679 20.9648 40.6679Z" fill="#181818"/>
<path opacity="0.57" d="M15.2055 9.86328L14.9551 14.6216L17.4595 15.8738L18.2108 13.6199L15.2055 9.86328Z" fill="url(#paint0_linear_13_25551)"/>
<path opacity="0.57" d="M26.474 10.1133V14.8716L24.2201 16.1238L23.4688 13.6194L26.474 10.1133Z" fill="url(#paint1_linear_13_25551)"/>
<path opacity="0.57" d="M33.2345 19.6328L30.7301 22.3876L28.7266 21.6363L29.4779 19.8833L33.2345 19.6328Z" fill="url(#paint2_linear_13_25551)"/>
<path opacity="0.57" d="M8.69531 19.8828L11.4501 22.6376L13.2032 21.8863L12.4519 20.1333L8.69531 19.8828Z" fill="url(#paint3_linear_13_25551)"/>
<path opacity="0.88" d="M33.4864 23.8885L24.721 20.6328L21.2148 24.139L24.721 27.1442L33.4864 23.8885Z" fill="url(#paint4_linear_13_25551)"/>
<path opacity="0.88" d="M9.69531 12.6172L20.7146 17.8764V24.1374L14.7041 23.8869L9.69531 12.6172Z" fill="url(#paint5_linear_13_25551)"/>
<path opacity="0.88" d="M8.44141 24.389L17.2068 20.8828L20.7129 24.1385L17.2068 27.3942L8.44141 24.389Z" fill="url(#paint6_linear_13_25551)"/>
<path opacity="0.85" d="M20.7153 24.6372L20.9657 24.3867L21.2162 24.6372V32.4008H20.4648L20.7153 24.6372Z" fill="url(#paint7_linear_13_25551)"/>
<path opacity="0.88" d="M20.7145 7.86328L16.457 19.3835L20.9649 24.1418L24.972 19.3835L20.7145 7.86328Z" fill="url(#paint8_linear_13_25551)"/>
<path opacity="0.88" d="M32.4846 12.6172L21.2148 17.626V24.1374L27.2254 23.8869L32.4846 12.6172Z" fill="url(#paint9_linear_13_25551)"/>
<defs>
<linearGradient id="paint0_linear_13_25551" x1="15.1461" y1="12.7749" x2="18.3162" y2="12.87" gradientUnits="userSpaceOnUse">
<stop offset="0.26" stop-color="#DBDADA"/>
<stop offset="1" stop-color="#B1B1B1"/>
</linearGradient>
<linearGradient id="paint1_linear_13_25551" x1="26.5259" y1="13.0324" x2="23.3556" y2="13.0324" gradientUnits="userSpaceOnUse">
<stop offset="0.26" stop-color="#DBDADA"/>
<stop offset="1" stop-color="#B1B1B1"/>
</linearGradient>
<linearGradient id="paint2_linear_13_25551" x1="31.8937" y1="21.5199" x2="30.0637" y2="19.7902" gradientUnits="userSpaceOnUse">
<stop offset="0.26" stop-color="#DBDADA"/>
<stop offset="1" stop-color="#B1B1B1"/>
</linearGradient>
<linearGradient id="paint3_linear_13_25551" x1="10.0659" y1="21.851" x2="11.8206" y2="20.0463" gradientUnits="userSpaceOnUse">
<stop offset="0.26" stop-color="#DBDADA"/>
<stop offset="1" stop-color="#B1B1B1"/>
</linearGradient>
<linearGradient id="paint4_linear_13_25551" x1="21.0477" y1="17.7601" x2="27.1344" y2="23.761" gradientUnits="userSpaceOnUse">
<stop offset="0.26" stop-color="#DBDADA"/>
<stop offset="1" stop-color="#B1B1B1"/>
</linearGradient>
<linearGradient id="paint5_linear_13_25551" x1="20.133" y1="18.5248" x2="8.9807" y2="18.6358" gradientUnits="userSpaceOnUse">
<stop offset="0.26" stop-color="#DBDADA"/>
<stop offset="1" stop-color="#B1B1B1"/>
</linearGradient>
<linearGradient id="paint6_linear_13_25551" x1="19.5175" y1="18.939" x2="13.6883" y2="25.1968" gradientUnits="userSpaceOnUse">
<stop offset="0.26" stop-color="#DBDADA"/>
<stop offset="1" stop-color="#B1B1B1"/>
</linearGradient>
<linearGradient id="paint7_linear_13_25551" x1="20.5763" y1="28.3679" x2="21.3126" y2="28.3679" gradientUnits="userSpaceOnUse">
<stop offset="0.26" stop-color="#DBDADA"/>
<stop offset="1" stop-color="#B1B1B1"/>
</linearGradient>
<linearGradient id="paint8_linear_13_25551" x1="16.3987" y1="16.001" x2="25.0353" y2="16.001" gradientUnits="userSpaceOnUse">
<stop offset="0.26" stop-color="#DBDADA"/>
<stop offset="1" stop-color="#B1B1B1"/>
</linearGradient>
<linearGradient id="paint9_linear_13_25551" x1="21.2184" y1="18.3854" x2="32.3616" y2="18.4968" gradientUnits="userSpaceOnUse">
<stop offset="0.26" stop-color="#DBDADA"/>
<stop offset="1" stop-color="#B1B1B1"/>
</linearGradient>
</defs>
</svg>
