<svg width="33" height="33" viewBox="0 0 33 33" fill="none" xmlns="http://www.w3.org/2000/svg">
<g clip-path="url(#clip0_1_20664)">
<path d="M16.5 33C25.6127 33 33 25.6127 33 16.5C33 7.3873 25.6127 0 16.5 0C7.3873 0 0 7.3873 0 16.5C0 25.6127 7.3873 33 16.5 33Z" fill="white"/>
<path d="M15.7852 16.5016H33.0025C33.0025 15.0124 32.804 13.5697 32.4341 12.1973H15.7852V16.5016Z" fill="#D80027"/>
<path d="M15.7852 7.89226H30.5808C29.5707 6.24407 28.2793 4.78723 26.7735 3.58789H15.7852V7.89226Z" fill="#D80027"/>
<path d="M16.5015 33.001C20.3847 33.001 23.9539 31.6588 26.7725 29.4141H6.23047C9.049 31.6588 12.6182 33.001 16.5015 33.001Z" fill="#D80027"/>
<path d="M2.42366 25.1091H30.5801C31.391 23.7859 32.0199 22.3396 32.4335 20.8047H0.570312C0.983908 22.3396 1.61278 23.7859 2.42366 25.1091Z" fill="#D80027"/>
<path d="M7.64311 2.57671H9.14674L7.7481 3.59281L8.28236 5.23695L6.88379 4.22084L5.48522 5.23695L5.9467 3.81659C4.71526 4.84236 3.63593 6.04416 2.74648 7.38323H3.22826L2.33797 8.03002C2.19927 8.26141 2.06624 8.49647 1.93875 8.73501L2.36388 10.0435L1.57072 9.4672C1.37356 9.88492 1.19322 10.312 1.03112 10.7481L1.4995 12.1898H3.22826L1.82963 13.2059L2.36388 14.85L0.965314 13.8339L0.127553 14.4426C0.0436992 15.1166 0 15.8032 0 16.5H16.5C16.5 7.38736 16.5 6.31305 16.5 0C13.2405 0 10.202 0.945527 7.64311 2.57671ZM8.28236 14.85L6.88379 13.8339L5.48522 14.85L6.01947 13.2059L4.62084 12.1898H6.3496L6.88379 10.5456L7.41797 12.1898H9.14674L7.7481 13.2059L8.28236 14.85ZM7.7481 8.39934L8.28236 10.0435L6.88379 9.02737L5.48522 10.0435L6.01947 8.39934L4.62084 7.38323H6.3496L6.88379 5.7391L7.41797 7.38323H9.14674L7.7481 8.39934ZM14.2008 14.85L12.8023 13.8339L11.4037 14.85L11.9379 13.2059L10.5393 12.1898H12.2681L12.8023 10.5456L13.3364 12.1898H15.0652L13.6666 13.2059L14.2008 14.85ZM13.6666 8.39934L14.2008 10.0435L12.8023 9.02737L11.4037 10.0435L11.9379 8.39934L10.5393 7.38323H12.2681L12.8023 5.7391L13.3364 7.38323H15.0652L13.6666 8.39934ZM13.6666 3.59281L14.2008 5.23695L12.8023 4.22084L11.4037 5.23695L11.9379 3.59281L10.5393 2.57671H12.2681L12.8023 0.932572L13.3364 2.57671H15.0652L13.6666 3.59281Z" fill="#0052B4"/>
</g>
<defs>
<clipPath id="clip0_1_20664">
<rect width="33" height="33" fill="white"/>
</clipPath>
</defs>
</svg>
