<svg width="41" height="41" viewBox="0 0 41 41" fill="none" xmlns="http://www.w3.org/2000/svg">
<path d="M20.0356 40.0711C31.1387 40.0711 40.0711 31.1387 40.0711 20.0356C40.0711 8.93245 31.1387 0 20.0356 0C8.93245 0 0 8.93245 0 20.0356C0 31.1387 8.93245 40.0711 20.0356 40.0711Z" fill="#2775CA"/>
<path d="M25.5453 23.2078C25.5453 20.286 23.7922 19.2842 20.286 18.8669C17.7816 18.5329 17.2807 17.8651 17.2807 16.6962C17.2807 15.5274 18.1155 14.7762 19.7851 14.7762C21.2878 14.7762 22.1227 15.2771 22.54 16.5293C22.6235 16.7798 22.874 16.9467 23.1244 16.9467H24.46C24.794 16.9467 25.0444 16.6962 25.0444 16.3624V16.2789C24.7105 14.4422 23.2078 13.0231 21.2878 12.8562V10.8527C21.2878 10.5187 21.0373 10.2682 20.62 10.1847H19.3678C19.0338 10.1847 18.7833 10.4351 18.6998 10.8527V12.7727C16.1953 13.1067 14.6093 14.7762 14.6093 16.8633C14.6093 19.6182 16.2789 20.7033 19.7851 21.1209C22.1227 21.5382 22.874 22.0391 22.874 23.3749C22.874 24.7107 21.7051 25.6289 20.1191 25.6289C17.9485 25.6289 17.1971 24.7105 16.9467 23.4582C16.8633 23.1244 16.6129 22.9573 16.3624 22.9573H14.9431C14.6093 22.9573 14.3589 23.2078 14.3589 23.5418V23.6253C14.6927 25.7122 16.0284 27.2149 18.7833 27.6324V29.636C18.7833 29.9698 19.0338 30.2202 19.4511 30.3038H20.7033C21.0373 30.3038 21.2878 30.0533 21.3713 29.636V27.6324C23.8758 27.2149 25.5453 25.4618 25.5453 23.2078Z" fill="white"/>
<path d="M15.778 31.9733C9.26644 29.636 5.92712 22.3731 8.34822 15.9449C9.60044 12.4387 12.3553 9.76733 15.778 8.51511C16.112 8.34822 16.2789 8.09777 16.2789 7.68023V6.51156C16.2789 6.17756 16.112 5.92712 15.778 5.84377C15.6945 5.84377 15.5276 5.84377 15.444 5.92712C7.51333 8.43156 3.17223 16.8633 5.67667 24.794C7.17934 29.4689 10.7691 33.0587 15.444 34.5613C15.778 34.7282 16.112 34.5613 16.1953 34.2273C16.2789 34.144 16.2789 34.0604 16.2789 33.8936V32.7247C16.2789 32.4742 16.0284 32.1404 15.778 31.9733ZM24.6271 5.92712C24.2931 5.76022 23.9591 5.92712 23.8758 6.26111C23.7922 6.34466 23.7922 6.42801 23.7922 6.5951V7.76378C23.7922 8.09777 24.0427 8.43156 24.2931 8.59866C30.8047 10.936 34.144 18.1989 31.7229 24.6271C30.4707 28.1333 27.7158 30.8047 24.2931 32.0569C23.9591 32.2238 23.7922 32.4742 23.7922 32.8918V34.0604C23.7922 34.3944 23.9591 34.6449 24.2931 34.7282C24.3767 34.7282 24.5436 34.7282 24.6271 34.6449C32.5578 32.1404 36.8989 23.7087 34.3944 15.778C32.8918 11.0196 29.2185 7.42979 24.6271 5.92712Z" fill="white"/>
</svg>
