<svg width="25" height="25" viewBox="0 0 25 25" fill="none" xmlns="http://www.w3.org/2000/svg">
<g clip-path="url(#clip0_1_5165)">
<path d="M12.3242 0.0429688C18.9501 0.0429688 24.3242 5.41705 24.3242 12.043C24.3242 18.6689 18.9501 24.043 12.3242 24.043C5.6983 24.043 0.324219 18.6689 0.324219 12.043C0.324219 5.41705 5.6983 0.0429688 12.3242 0.0429688Z" fill="#0052FF"/>
<path d="M12.3281 16.2621C9.99719 16.2621 8.10983 14.3738 8.10983 12.0429C8.10983 9.71203 9.99815 7.82467 12.3281 7.82467C14.4161 7.82467 16.1498 9.34723 16.4839 11.3402H20.7338C20.3748 7.00867 16.7508 3.60547 12.3281 3.60547C7.67015 3.60547 3.89062 7.38499 3.89062 12.0429C3.89062 16.7008 7.67015 20.4803 12.3281 20.4803C16.7508 20.4803 20.3757 17.0771 20.7338 12.7456H16.4801C16.146 14.7395 14.4161 16.2621 12.3281 16.2621Z" fill="white"/>
</g>
<defs>
<clipPath id="clip0_1_5165">
<rect width="24" height="24" fill="white" transform="translate(0.324219 0.0429688)"/>
</clipPath>
</defs>
</svg>
