<svg width="25" height="24" viewBox="0 0 25 24" fill="none" xmlns="http://www.w3.org/2000/svg">
<path d="M17.5742 0H7.07422C3.3463 0 0.324219 3.02208 0.324219 6.75V17.25C0.324219 20.9779 3.3463 24 7.07422 24H17.5742C21.3021 24 24.3242 20.9779 24.3242 17.25V6.75C24.3242 3.02208 21.3021 0 17.5742 0Z" fill="url(#paint0_linear_1_1433)"/>
<path fill-rule="evenodd" clip-rule="evenodd" d="M11.5735 8C11.2775 6.84985 10.2335 6 8.99087 6C7.51812 6 6.32422 7.1939 6.32422 8.66665C6.32422 10.1395 7.51812 11.3334 8.99087 11.3334C10.2335 11.3334 11.2775 10.4835 11.5735 9.33335H13.8798V11.5555H15.2131V9.33335H16.102V11.5555H17.4353V9.33335H18.3242V8H11.5735ZM10.3242 8.66665C10.3242 9.40305 9.72727 10 8.99087 10C8.25452 10 7.65757 9.40305 7.65757 8.66665C7.65757 7.9303 8.25452 7.33335 8.99087 7.33335C9.72727 7.33335 10.3242 7.9303 10.3242 8.66665Z" fill="white"/>
<path fill-rule="evenodd" clip-rule="evenodd" d="M13.0749 16.0009C13.3709 17.151 14.415 18.0009 15.6576 18.0009C17.1303 18.0009 18.3242 16.807 18.3242 15.3342C18.3242 13.8614 17.1303 12.6675 15.6576 12.6675C14.415 12.6675 13.3709 13.5174 13.0749 14.6675H10.7687V12.4453H9.43532V14.6675H8.54642V12.4453H7.21312V14.6675H6.32422V16.0009H13.0749ZM14.3242 15.3342C14.3242 14.5978 14.9212 14.0009 15.6576 14.0009C16.3939 14.0009 16.9909 14.5978 16.9909 15.3342C16.9909 16.0706 16.3939 16.6675 15.6576 16.6675C14.9212 16.6675 14.3242 16.0706 14.3242 15.3342Z" fill="white"/>
<defs>
<linearGradient id="paint0_linear_1_1433" x1="24.3242" y1="0" x2="0.324224" y2="24" gradientUnits="userSpaceOnUse">
<stop stop-color="#CDADFF"/>
<stop offset="1" stop-color="#6432F1"/>
</linearGradient>
</defs>
</svg>
