<svg width="24" height="24" viewBox="0 0 24 24" fill="none" xmlns="http://www.w3.org/2000/svg">
<path d="M12 24C18.6274 24 24 18.6274 24 12C24 5.37258 18.6274 0 12 0C5.37258 0 0 5.37258 0 12C0 18.6274 5.37258 24 12 24Z" fill="url(#paint0_linear_1_14262)"/>
<path d="M20.5908 12.1456H18.4753C18.4753 7.83451 14.9683 4.33984 10.6418 4.33984C6.36892 4.33984 2.895 7.74895 2.80998 11.9862C2.72202 16.3662 6.84587 20.1697 11.242 20.1697H11.795C15.6707 20.1697 20.8654 17.1464 21.677 13.4629C21.8269 12.7839 21.2886 12.1456 20.5908 12.1456ZM7.49815 12.3377C7.49815 12.9142 7.02494 13.3857 6.44638 13.3857C5.86781 13.3857 5.39463 12.914 5.39463 12.3377V10.6422C5.39463 10.0657 5.86781 9.5942 6.44638 9.5942C7.02494 9.5942 7.49815 10.0657 7.49815 10.6422V12.3377ZM11.1502 12.3377C11.1502 12.9142 10.6771 13.3857 10.0986 13.3857C9.51994 13.3857 9.04679 12.914 9.04679 12.3377V10.6422C9.04679 10.0657 9.52015 9.5942 10.0986 9.5942C10.6771 9.5942 11.1502 10.0657 11.1502 10.6422V12.3377Z" fill="url(#paint1_linear_1_14262)"/>
<defs>
<linearGradient id="paint0_linear_1_14262" x1="12" y1="0" x2="12" y2="24" gradientUnits="userSpaceOnUse">
<stop stop-color="#534BB1"/>
<stop offset="1" stop-color="#551BF9"/>
</linearGradient>
<linearGradient id="paint1_linear_1_14262" x1="12.2554" y1="4.33984" x2="12.2554" y2="20.1697" gradientUnits="userSpaceOnUse">
<stop stop-color="white"/>
<stop offset="1" stop-color="white" stop-opacity="0.82"/>
</linearGradient>
</defs>
</svg>
