<svg width="25" height="25" viewBox="0 0 25 25" fill="none" xmlns="http://www.w3.org/2000/svg">
<path d="M12.3242 0.0859375C18.9501 0.0859375 24.3242 5.46002 24.3242 12.0859C24.3242 18.7119 18.9501 24.0859 12.3242 24.0859C5.6983 24.0859 0.324219 18.7119 0.324219 12.0859C0.324219 5.46002 5.6983 0.0859375 12.3242 0.0859375Z" fill="#242426"/>
<path d="M6.48698 8.64501C9.47584 5.70166 14.3341 5.70166 17.3342 8.64501L17.6924 8.99461C17.8379 9.14121 17.8379 9.37803 17.6924 9.52463L16.461 10.7313C16.3827 10.8102 16.2595 10.8102 16.1924 10.7313L15.6998 10.2464C13.6065 8.19392 10.2259 8.19392 8.13253 10.2464L7.6064 10.7651C7.52804 10.8441 7.40491 10.8441 7.33774 10.7651L6.10637 9.55847C5.96085 9.41186 5.96085 9.17504 6.10637 9.02844L6.49817 8.64501H6.48698ZM19.8753 11.1486L20.9723 12.2312C21.1178 12.3778 21.1178 12.6146 20.9723 12.7612L16.0245 17.6217C15.8789 17.7683 15.6327 17.7683 15.4871 17.6217L11.9722 14.1708C11.9386 14.137 11.8714 14.137 11.8378 14.1708L8.32283 17.6217C8.17731 17.7683 7.93103 17.7683 7.78551 17.6217L2.83766 12.7612C2.69213 12.6146 2.69213 12.3778 2.83766 12.2312L3.93469 11.1486C4.08022 11.0019 4.32649 11.0019 4.47202 11.1486L7.98701 14.5994C8.02059 14.6332 8.08775 14.6332 8.12134 14.5994L11.6363 11.1486C11.7818 11.0019 12.0281 11.0019 12.1736 11.1486L15.6886 14.5994C15.7222 14.6332 15.7894 14.6332 15.823 14.5994L19.338 11.1486C19.4835 11.0019 19.7298 11.0019 19.8753 11.1486Z" fill="white"/>
</svg>
