<svg width="25" height="25" viewBox="0 0 25 25" fill="none" xmlns="http://www.w3.org/2000/svg">
<g clip-path="url(#clip0_1_5178)">
<path d="M12.3242 0.0859375C18.9501 0.0859375 24.3242 5.46002 24.3242 12.0859C24.3242 18.7119 18.9501 24.0859 12.3242 24.0859C5.6983 24.0859 0.324219 18.7119 0.324219 12.0859C0.324219 5.46002 5.6983 0.0859375 12.3242 0.0859375Z" fill="#242426"/>
<path d="M6.48698 8.64697C9.47584 5.70362 14.3341 5.70362 17.3342 8.64697L17.6924 8.99656C17.8379 9.14316 17.8379 9.37998 17.6924 9.52659L16.461 10.7332C16.3827 10.8122 16.2595 10.8122 16.1924 10.7332L15.6998 10.2483C13.6065 8.19588 10.2259 8.19588 8.13253 10.2483L7.6064 10.7671C7.52804 10.846 7.40491 10.846 7.33774 10.7671L6.10637 9.56042C5.96085 9.41382 5.96085 9.17699 6.10637 9.03039L6.49817 8.64697H6.48698ZM19.8753 11.1505L20.9723 12.2331C21.1178 12.3797 21.1178 12.6165 20.9723 12.7631L16.0245 17.6236C15.8789 17.7702 15.6327 17.7702 15.4871 17.6236L11.9722 14.1728C11.9386 14.139 11.8714 14.139 11.8378 14.1728L8.32283 17.6236C8.17731 17.7702 7.93103 17.7702 7.78551 17.6236L2.83766 12.7631C2.69213 12.6165 2.69213 12.3797 2.83766 12.2331L3.93469 11.1505C4.08022 11.0039 4.32649 11.0039 4.47202 11.1505L7.98701 14.6013C8.02059 14.6352 8.08775 14.6352 8.12134 14.6013L11.6363 11.1505C11.7818 11.0039 12.0281 11.0039 12.1736 11.1505L15.6886 14.6013C15.7222 14.6352 15.7894 14.6352 15.823 14.6013L19.338 11.1505C19.4835 11.0039 19.7298 11.0039 19.8753 11.1505Z" fill="white"/>
</g>
<defs>
<clipPath id="clip0_1_5178">
<rect width="24" height="24" fill="white" transform="translate(0.324219 0.0859375)"/>
</clipPath>
</defs>
</svg>
