<?xml version="1.0" encoding="UTF-8"?>
<svg width="24" height="25" viewBox="0 0 24 25" fill="none" xmlns="http://www.w3.org/2000/svg">
<circle cx="12" cy="12.5" r="12" fill="#F9FAFA"/>
<path d="M11.2119 6.688H13.0839V21.312H11.2119V6.688ZM18.1719 15.152C18.0653 16.1227 17.7453 16.9813 17.2119 17.728C16.6786 18.4747 15.9693 19.056 15.0839 19.472C14.2093 19.8773 13.2119 20.08 12.0919 20.08C10.8653 20.08 9.78794 19.824 8.85994 19.312C7.93194 18.8 7.20661 18.0907 6.68394 17.184C6.16127 16.2667 5.89994 15.2053 5.89994 14C5.89994 12.784 6.16127 11.7227 6.68394 10.816C7.20661 9.90933 7.93194 9.2 8.85994 8.688C9.78794 8.176 10.8653 7.92 12.0919 7.92C13.2119 7.92 14.2093 8.128 15.0839 8.544C15.9693 8.94933 16.6786 9.52533 17.2119 10.272C17.7453 11.008 18.0653 11.8613 18.1719 12.832H15.6119C15.5053 12.2773 15.2973 11.7973 14.9879 11.392C14.6893 10.9867 14.2946 10.672 13.8039 10.448C13.3133 10.224 12.7426 10.112 12.0919 10.112C11.3559 10.112 10.7159 10.272 10.1719 10.592C9.62794 10.912 9.20661 11.3653 8.90794 11.952C8.61994 12.528 8.47594 13.2107 8.47594 14C8.47594 14.7893 8.61994 15.4773 8.90794 16.064C9.20661 16.64 9.62794 17.088 10.1719 17.408C10.7159 17.728 11.3559 17.888 12.0919 17.888C12.7426 17.888 13.3079 17.7813 13.7879 17.568C14.2786 17.344 14.6786 17.0293 14.9879 16.624C15.2973 16.2187 15.5053 15.728 15.6119 15.152H18.1719Z" fill="url(#paint0_linear_1_1632)"/>
<defs>
<linearGradient id="paint0_linear_1_1632" x1="7" y1="4" x2="17.9052" y2="4.60087" gradientUnits="userSpaceOnUse">
<stop offset="0.155832" stop-color="#5A50CF"/>
<stop offset="0.482452" stop-color="#453CC4"/>
<stop offset="1" stop-color="#C79BEA"/>
</linearGradient>
</defs>
</svg>
