<svg width="24" height="25" viewBox="0 0 24 25" fill="none" xmlns="http://www.w3.org/2000/svg">
<circle cx="12" cy="12.5" r="12" fill="#F9FAFA"/>
<path d="M11.3253 19.24C10.1626 19.24 9.14398 19.0693 8.26932 18.728C7.40532 18.376 6.72265 17.8853 6.22132 17.256C5.73065 16.6267 5.47465 15.9013 5.45332 15.08H8.10932C8.18398 15.7307 8.50398 16.248 9.06932 16.632C9.64532 17.0053 10.4133 17.192 11.3733 17.192C12.28 17.192 12.968 17.048 13.4373 16.76C13.9173 16.472 14.1573 16.0933 14.1573 15.624C14.1573 15.3467 14.0826 15.112 13.9333 14.92C13.7946 14.728 13.5493 14.568 13.1973 14.44C12.856 14.3013 12.376 14.2053 11.7573 14.152L10.0773 13.992C8.55198 13.8533 7.42665 13.48 6.70132 12.872C5.97598 12.264 5.61332 11.4587 5.61332 10.456C5.61332 9.688 5.83198 9.032 6.26932 8.488C6.71732 7.93333 7.34132 7.50667 8.14132 7.208C8.94132 6.90933 9.88532 6.76 10.9733 6.76C12.0613 6.76 13.0106 6.92533 13.8213 7.256C14.6426 7.576 15.288 8.02933 15.7573 8.616C16.2266 9.192 16.4826 9.86933 16.5253 10.648H13.8853C13.8213 10.1147 13.5493 9.67733 13.0693 9.336C12.5893 8.984 11.88 8.808 10.9413 8.808C10.0773 8.808 9.41598 8.94667 8.95732 9.224C8.50932 9.50133 8.28532 9.88 8.28532 10.36C8.28532 10.584 8.34932 10.792 8.47732 10.984C8.60532 11.1653 8.82932 11.3147 9.14932 11.432C9.46932 11.5493 9.90665 11.6347 10.4613 11.688L12.2853 11.848C13.384 11.944 14.264 12.1413 14.9253 12.44C15.5973 12.728 16.0826 13.112 16.3813 13.592C16.68 14.072 16.8293 14.6533 16.8293 15.336C16.8293 16.0933 16.6053 16.7707 16.1573 17.368C15.7093 17.9547 15.0746 18.4133 14.2533 18.744C13.432 19.0747 12.456 19.24 11.3253 19.24ZM12.1253 5.688V20.312H10.1253V5.688H12.1253Z" fill="url(#paint0_linear_358_4503)"/>
<defs>
<linearGradient id="paint0_linear_358_4503" x1="5" y1="3" x2="18.4135" y2="3.81137" gradientUnits="userSpaceOnUse">
<stop offset="0.155832" stop-color="#5A50CF"/>
<stop offset="0.482452" stop-color="#453CC4"/>
<stop offset="1" stop-color="#C79BEA"/>
</linearGradient>
</defs>
</svg>
