<?xml version="1.0" encoding="UTF-8"?>
<svg width="24" height="25" viewBox="0 0 24 25" fill="none" xmlns="http://www.w3.org/2000/svg">
<circle cx="12" cy="12.5" r="12" fill="#F9FAFA"/>
<path d="M5.94869 10.824H15.4527V12.424H5.94869V10.824ZM5.94869 13.576H15.4527V15.176H5.94869V13.576ZM7.35669 13.032C7.35669 11.784 7.64469 10.696 8.22069 9.768C8.79669 8.82933 9.59669 8.09867 10.6207 7.576C11.6554 7.04267 12.8607 6.776 14.2367 6.776C14.9727 6.776 15.6607 6.84 16.3007 6.968C16.9407 7.096 17.4954 7.26133 17.9647 7.464V9.608C17.474 9.37333 16.93 9.192 16.3327 9.064C15.746 8.936 15.1594 8.872 14.5727 8.872C13.6234 8.872 12.8127 9.03733 12.1407 9.368C11.4794 9.688 10.9727 10.1573 10.6207 10.776C10.2687 11.3947 10.0927 12.1467 10.0927 13.032C10.0927 13.9067 10.2687 14.6533 10.6207 15.272C10.9727 15.8907 11.4794 16.36 12.1407 16.68C12.8127 17 13.6234 17.16 14.5727 17.16C15.1487 17.16 15.7354 17.1013 16.3327 16.984C16.93 16.856 17.474 16.6747 17.9647 16.44V18.6C17.4954 18.8027 16.9407 18.9627 16.3007 19.08C15.6714 19.208 14.9887 19.272 14.2527 19.272C12.866 19.272 11.6554 19.0107 10.6207 18.488C9.58603 17.9653 8.78069 17.2347 8.20469 16.296C7.63936 15.3573 7.35669 14.2693 7.35669 13.032Z" fill="url(#paint0_linear_1_1624)"/>
<defs>
<linearGradient id="paint0_linear_1_1624" x1="5" y1="3" x2="20.0755" y2="4.0259" gradientUnits="userSpaceOnUse">
<stop offset="0.155832" stop-color="#5A50CF"/>
<stop offset="0.482452" stop-color="#453CC4"/>
<stop offset="1" stop-color="#C79BEA"/>
</linearGradient>
</defs>
</svg>
