<?xml version="1.0" encoding="UTF-8"?>
<svg width="24" height="25" viewBox="0 0 24 25" fill="none" xmlns="http://www.w3.org/2000/svg">
<circle cx="12" cy="12.5" r="12" fill="#F9FAFA"/>
<path d="M5.55082 12.376H15.0068V14.2H5.55082V12.376ZM8.33482 17.4L7.45482 17.016H16.9748V19H5.56682V16.808C6.62282 16.616 7.41748 16.3547 7.95082 16.024C8.48415 15.6933 8.75082 15.2933 8.75082 14.824C8.75082 14.5253 8.67615 14.2533 8.52682 14.008C8.37748 13.7627 8.19082 13.5227 7.96682 13.288C7.75348 13.0533 7.53482 12.7973 7.31082 12.52C7.08682 12.2427 6.90015 11.9227 6.75082 11.56C6.60148 11.1973 6.52682 10.7653 6.52682 10.264C6.52682 9.56 6.73482 8.94667 7.15082 8.424C7.57748 7.90133 8.16948 7.496 8.92682 7.208C9.69482 6.90933 10.5801 6.76 11.5828 6.76C12.5748 6.76 13.4548 6.91467 14.2228 7.224C15.0015 7.53333 15.6148 7.96533 16.0628 8.52C16.5108 9.07467 16.7561 9.72533 16.7988 10.472H14.1108C14.0255 9.96 13.7588 9.56 13.3108 9.272C12.8735 8.97333 12.3188 8.824 11.6468 8.824C10.9108 8.824 10.3241 8.97333 9.88682 9.272C9.46015 9.57067 9.24682 9.98133 9.24682 10.504C9.24682 10.856 9.31615 11.1653 9.45482 11.432C9.60415 11.6987 9.78548 11.944 9.99882 12.168C10.2121 12.392 10.4255 12.6213 10.6388 12.856C10.8628 13.08 11.0441 13.3253 11.1828 13.592C11.3321 13.8587 11.4068 14.1627 11.4068 14.504C11.4068 14.952 11.2788 15.368 11.0228 15.752C10.7668 16.136 10.4041 16.4667 9.93482 16.744C9.47615 17.0213 8.94282 17.24 8.33482 17.4Z" fill="url(#paint0_linear_1_1616)"/>
<defs>
<linearGradient id="paint0_linear_1_1616" x1="5" y1="3" x2="18.4135" y2="3.81137" gradientUnits="userSpaceOnUse">
<stop offset="0.155832" stop-color="#5A50CF"/>
<stop offset="0.482452" stop-color="#453CC4"/>
<stop offset="1" stop-color="#C79BEA"/>
</linearGradient>
</defs>
</svg>
