<svg width="35" height="31" viewBox="0 0 35 31" fill="none" xmlns="http://www.w3.org/2000/svg">
<path d="M31.5807 25.0556V29.4118H2.53906V25.0556C2.53906 24.257 3.1925 23.6035 3.99114 23.6035H30.1286C30.9273 23.6035 31.5807 24.257 31.5807 25.0556Z" fill="white" stroke="white" stroke-width="2.31643" stroke-miterlimit="10" stroke-linecap="round" stroke-linejoin="round"/>
<path d="M9.80155 13.438H6.89739V23.6026H9.80155V13.438ZM15.6099 13.438H12.7057V23.6026H15.6099V13.438ZM21.4182 13.438H18.514V23.6026H21.4182V13.438ZM27.2265 13.438H24.3224V23.6026H27.2265V13.438ZM33.0349 30.5H1.08906C0.493708 30.5 0 30.0063 0 29.4109C0 28.8156 0.493708 28.3219 1.08906 28.3219H33.0349C33.6302 28.3219 34.1239 28.8156 34.1239 29.4109C34.1239 30.0063 33.6302 30.5 33.0349 30.5ZM30.668 5.81462L17.5992 0.587125C17.3088 0.470958 16.8151 0.470958 16.5247 0.587125L3.45595 5.81462C2.94773 6.01791 2.54114 6.61326 2.54114 7.16505V11.986C2.54114 12.7846 3.19458 13.438 3.99322 13.438H30.1307C30.9293 13.438 31.5828 12.7846 31.5828 11.986V7.16505C31.5828 6.61326 31.1762 6.01791 30.668 5.81462ZM17.062 9.80784C15.8567 9.80784 14.8838 8.83495 14.8838 7.62972C14.8838 6.42449 15.8567 5.4516 17.062 5.4516C18.2672 5.4516 19.2401 6.42449 19.2401 7.62972C19.2401 8.83495 18.2672 9.80784 17.062 9.80784Z" fill="white"/>
</svg>
