<svg width="20" height="21" viewBox="0 0 20 21" fill="none" xmlns="http://www.w3.org/2000/svg">
<path d="M9.1 17.998H10.85V16.748C11.6833 16.598 12.4 16.273 13 15.773C13.6 15.273 13.9 14.5314 13.9 13.548C13.9 12.848 13.7 12.2064 13.3 11.623C12.9 11.0397 12.1 10.5314 10.9 10.098C9.9 9.76471 9.20833 9.47305 8.825 9.22305C8.44167 8.97305 8.25 8.63138 8.25 8.19805C8.25 7.76471 8.40417 7.42305 8.7125 7.17305C9.02083 6.92305 9.46667 6.79805 10.05 6.79805C10.5833 6.79805 11 6.92721 11.3 7.18555C11.6 7.44388 11.8167 7.76471 11.95 8.14805L13.55 7.49805C13.3667 6.91471 13.0292 6.40638 12.5375 5.97305C12.0458 5.53971 11.5 5.29805 10.9 5.24805V3.99805H9.15V5.24805C8.31667 5.43138 7.66667 5.79805 7.2 6.34805C6.73333 6.89805 6.5 7.51471 6.5 8.19805C6.5 8.98138 6.72917 9.61471 7.1875 10.098C7.64583 10.5814 8.36667 10.998 9.35 11.348C10.4 11.7314 11.1292 12.073 11.5375 12.373C11.9458 12.673 12.15 13.0647 12.15 13.548C12.15 14.098 11.9542 14.5022 11.5625 14.7605C11.1708 15.0189 10.7 15.148 10.15 15.148C9.6 15.148 9.1125 14.9772 8.6875 14.6355C8.2625 14.2939 7.95 13.7814 7.75 13.098L6.1 13.748C6.33333 14.548 6.69583 15.1939 7.1875 15.6855C7.67917 16.1772 8.31667 16.5147 9.1 16.698V17.998ZM10 20.998C8.61667 20.998 7.31667 20.7355 6.1 20.2105C4.88333 19.6855 3.825 18.973 2.925 18.073C2.025 17.173 1.3125 16.1147 0.7875 14.898C0.2625 13.6814 0 12.3814 0 10.998C0 9.61471 0.2625 8.31471 0.7875 7.09805C1.3125 5.88138 2.025 4.82305 2.925 3.92305C3.825 3.02305 4.88333 2.31055 6.1 1.78555C7.31667 1.26055 8.61667 0.998047 10 0.998047C11.3833 0.998047 12.6833 1.26055 13.9 1.78555C15.1167 2.31055 16.175 3.02305 17.075 3.92305C17.975 4.82305 18.6875 5.88138 19.2125 7.09805C19.7375 8.31471 20 9.61471 20 10.998C20 12.3814 19.7375 13.6814 19.2125 14.898C18.6875 16.1147 17.975 17.173 17.075 18.073C16.175 18.973 15.1167 19.6855 13.9 20.2105C12.6833 20.7355 11.3833 20.998 10 20.998Z" fill="white"/>
</svg>
