<svg width="11" height="19" viewBox="0 0 11 19" fill="none" xmlns="http://www.w3.org/2000/svg">
<path d="M2.15008 18.575L10.5751 10.175C10.6751 10.075 10.7461 9.96667 10.7881 9.85C10.8301 9.73333 10.8507 9.60833 10.8501 9.475C10.8501 9.34167 10.8294 9.21667 10.7881 9.1C10.7467 8.98333 10.6757 8.875 10.5751 8.775L2.15008 0.35C1.91675 0.116667 1.62508 0 1.27508 0C0.925082 0 0.625083 0.125 0.375083 0.375C0.125083 0.625 8.29697e-05 0.916667 8.29697e-05 1.25C8.29697e-05 1.58333 0.125083 1.875 0.375083 2.125L7.72508 9.475L0.375083 16.825C0.141749 17.0583 0.0250826 17.346 0.0250826 17.688C0.0250826 18.03 0.150083 18.3257 0.400083 18.575C0.650083 18.825 0.94175 18.95 1.27508 18.95C1.60842 18.95 1.90008 18.825 2.15008 18.575Z" fill="#F9FAFA"/>
</svg>
