<svg width="20" height="12" viewBox="0 0 20 12" fill="none" xmlns="http://www.w3.org/2000/svg">
<path d="M0.50996 2.72479L8.90996 11.1498C9.00996 11.2498 9.11829 11.3208 9.23496 11.3628C9.35163 11.4048 9.47663 11.4255 9.60996 11.4248C9.74329 11.4248 9.86829 11.4041 9.98496 11.3628C10.1016 11.3215 10.21 11.2505 10.31 11.1498L18.735 2.72479C18.9683 2.49146 19.085 2.19979 19.085 1.84979C19.085 1.49979 18.96 1.19979 18.71 0.94979C18.46 0.69979 18.1683 0.57479 17.835 0.57479C17.5016 0.57479 17.21 0.69979 16.96 0.94979L9.60996 8.29979L2.25996 0.94979C2.02663 0.716456 1.73896 0.59979 1.39696 0.59979C1.05496 0.59979 0.759293 0.72479 0.50996 0.97479C0.25996 1.22479 0.13496 1.51646 0.13496 1.84979C0.13496 2.18312 0.25996 2.47479 0.50996 2.72479Z" fill="#F9FAFA"/>
</svg>
