<svg width="18" height="18" viewBox="0 0 18 18" fill="none" xmlns="http://www.w3.org/2000/svg">
<path d="M8.575 10.4009L2.18451 16.7913C1.94541 17.0304 1.6411 17.15 1.27158 17.15C0.902059 17.15 0.59775 17.0304 0.35865 16.7913C0.11955 16.5522 0 16.2479 0 15.8784C0 15.5089 0.11955 15.2046 0.35865 14.9655L6.74914 8.575L0.35865 2.18451C0.11955 1.94541 0 1.6411 0 1.27158C0 0.902059 0.11955 0.59775 0.35865 0.35865C0.59775 0.11955 0.902059 0 1.27158 0C1.6411 0 1.94541 0.11955 2.18451 0.35865L8.575 6.74914L14.9655 0.35865C15.2046 0.11955 15.5089 0 15.8784 0C16.2479 0 16.5522 0.11955 16.7913 0.35865C17.0304 0.59775 17.15 0.902059 17.15 1.27158C17.15 1.6411 17.0304 1.94541 16.7913 2.18451L10.4009 8.575L16.7913 14.9655C17.0304 15.2046 17.15 15.5089 17.15 15.8784C17.15 16.2479 17.0304 16.5522 16.7913 16.7913C16.5522 17.0304 16.2479 17.15 15.8784 17.15C15.5089 17.15 15.2046 17.0304 14.9655 16.7913L8.575 10.4009Z" fill="#F9FAFA"/>
</svg>
