<svg width="35" height="34" viewBox="0 0 35 34" fill="none" xmlns="http://www.w3.org/2000/svg">
<circle cx="17.3242" cy="17" r="17" fill="#171723"/>
<path d="M16.6272 25.0607H13.534C10.6545 25.0607 9.37305 23.7355 9.37305 20.7575V17.5586C9.37305 14.5806 10.6545 13.2554 13.534 13.2554H16.6272C19.5067 13.2554 20.7881 14.5806 20.7881 17.5586V20.7575C20.7881 23.7355 19.5067 25.0607 16.6272 25.0607ZM13.534 14.3978C11.251 14.3978 10.4777 15.1975 10.4777 17.5586V20.7575C10.4777 23.1185 11.251 23.9183 13.534 23.9183H16.6272C18.9102 23.9183 19.6835 23.1185 19.6835 20.7575V17.5586C19.6835 15.1975 18.9102 14.3978 16.6272 14.3978H13.534Z" fill="white"/>
<path d="M21.0451 20.488H20.235C19.9331 20.488 19.6827 20.229 19.6827 19.9167V17.5557C19.6827 15.1946 18.9094 14.3949 16.6264 14.3949H14.3434C14.0414 14.3949 13.791 14.1359 13.791 13.8237V12.9859C13.791 10.0079 15.0725 8.68262 17.952 8.68262H21.0451C23.9247 8.68262 25.2061 10.0079 25.2061 12.9859V16.1847C25.2061 19.1627 23.9247 20.488 21.0451 20.488ZM20.7874 19.3455H21.0451C23.3281 19.3455 24.1014 18.5458 24.1014 16.1847V12.9859C24.1014 10.6248 23.3281 9.82507 21.0451 9.82507H17.952C15.669 9.82507 14.8957 10.6248 14.8957 12.9859V13.2524H16.6264C19.5059 13.2524 20.7874 14.5777 20.7874 17.5557V19.3455Z" fill="white"/>
</svg>
