<svg width="35" height="35" viewBox="0 0 35 35" fill="none" xmlns="http://www.w3.org/2000/svg">
<circle cx="17.3242" cy="17.043" r="17" fill="#171723"/>
<path d="M25 12.3167C22.225 12.0417 19.4333 11.9 16.65 11.9C15 11.9 13.35 11.9833 11.7 12.15L10 12.3167M14.5833 11.475L14.7667 10.3833C14.9 9.59167 15 9 16.4083 9H18.5917C20 9 20.1083 9.625 20.2333 10.3917L20.4167 11.475M23.2083 14.95L22.6667 23.3417C22.575 24.65 22.5 25.6667 20.175 25.6667H14.825C12.5 25.6667 12.425 24.65 12.3333 23.3417L11.7917 14.95M16.1083 21.0833H18.8833M15.4167 17.75H19.5833" stroke="white" stroke-linecap="round" stroke-linejoin="round"/>
</svg>
