<svg width="35" height="35" viewBox="0 0 35 35" fill="none" xmlns="http://www.w3.org/2000/svg">
<circle cx="17.3242" cy="17.043" r="17" fill="#171723"/>
<path d="M19.4369 25.7915H19.3339C15.8154 25.7915 14.1195 24.3573 13.8263 21.1447C13.7946 20.8087 14.0324 20.5054 14.3652 20.4727C14.6822 20.4399 14.9833 20.6939 15.015 21.03C15.2448 23.6033 16.4176 24.5622 19.3418 24.5622H19.4448C22.6701 24.5622 23.8113 23.3821 23.8113 20.0465V14.703C23.8113 11.3675 22.6701 10.1873 19.4448 10.1873H19.3418C16.4018 10.1873 15.229 11.1626 15.015 13.7851C14.9754 14.1212 14.698 14.3752 14.3652 14.3424C14.2871 14.3361 14.211 14.3139 14.1412 14.2771C14.0714 14.2403 14.0093 14.1896 13.9585 14.1279C13.9077 14.0663 13.8692 13.9948 13.8451 13.9177C13.8211 13.8406 13.812 13.7594 13.8184 13.6786C14.0878 10.4168 15.7916 8.95801 19.3339 8.95801H19.4369C23.3279 8.95801 24.992 10.6791 24.992 14.703V20.0465C24.992 24.0705 23.3279 25.7915 19.4369 25.7915Z" fill="white"/>
<path d="M19.2472 17.9901H10.2291C9.9042 17.9901 9.63477 17.7114 9.63477 17.3754C9.63477 17.0394 9.9042 16.7607 10.2291 16.7607H19.2472C19.5722 16.7607 19.8416 17.0394 19.8416 17.3754C19.8416 17.7114 19.5722 17.9901 19.2472 17.9901Z" fill="white"/>
<path d="M11.9972 20.7324C11.8467 20.7324 11.6961 20.675 11.5772 20.5521L8.92252 17.8066C8.81199 17.691 8.75 17.5349 8.75 17.3723C8.75 17.2096 8.81199 17.0536 8.92252 16.9379L11.5772 14.1924C11.8071 13.9547 12.1874 13.9547 12.4172 14.1924C12.6471 14.4301 12.6471 14.8235 12.4172 15.0611L10.1825 17.3723L12.4172 19.6834C12.6471 19.9211 12.6471 20.3144 12.4172 20.5521C12.3063 20.675 12.1478 20.7324 11.9972 20.7324Z" fill="white"/>
</svg>
