<svg width="35" height="34" viewBox="0 0 35 34" fill="none" xmlns="http://www.w3.org/2000/svg">
<circle cx="17.3242" cy="17" r="17" fill="#171723"/>
<path d="M16.166 8.66639H14.4993C10.3327 8.66639 8.66602 10.3331 8.66602 14.4997V19.4997C8.66602 23.6664 10.3327 25.3331 14.4993 25.3331H19.4993C23.666 25.3331 25.3327 23.6664 25.3327 19.4997V17.8331M19.4243 10.4581C19.7007 11.4393 20.2243 12.3331 20.9451 13.0539C21.666 13.7747 22.5598 14.2984 23.541 14.5747M20.366 9.51639L13.7993 16.0831C13.5493 16.3331 13.2993 16.8247 13.2493 17.1831L12.891 19.6914C12.7577 20.5997 13.3993 21.2331 14.3077 21.1081L16.816 20.7497C17.166 20.6997 17.6577 20.4497 17.916 20.1997L24.4827 13.6331C25.616 12.4997 26.1493 11.1831 24.4827 9.51639C22.816 7.84972 21.4994 8.38306 20.366 9.51639Z" stroke="white" stroke-miterlimit="10" stroke-linecap="round" stroke-linejoin="round"/>
</svg>
