<svg width="25" height="26" viewBox="0 0 25 26" fill="none" xmlns="http://www.w3.org/2000/svg">
<path d="M11.25 19.25H13.75V11.75H11.25V19.25ZM12.5 9.25C12.8542 9.25 13.151 9.13021 13.3906 8.89062C13.6302 8.65104 13.75 8.35417 13.75 8C13.75 7.64583 13.6302 7.34896 13.3906 7.10938C13.151 6.86979 12.8542 6.75 12.5 6.75C12.1458 6.75 11.849 6.86979 11.6094 7.10938C11.3698 7.34896 11.25 7.64583 11.25 8C11.25 8.35417 11.3698 8.65104 11.6094 8.89062C11.849 9.13021 12.1458 9.25 12.5 9.25ZM12.5 25.5C10.7708 25.5 9.14583 25.1719 7.625 24.5156C6.10417 23.8594 4.78125 22.9688 3.65625 21.8438C2.53125 20.7188 1.64063 19.3958 0.984375 17.875C0.328125 16.3542 0 14.7292 0 13C0 11.2708 0.328125 9.64583 0.984375 8.125C1.64063 6.60417 2.53125 5.28125 3.65625 4.15625C4.78125 3.03125 6.10417 2.14063 7.625 1.48438C9.14583 0.828125 10.7708 0.5 12.5 0.5C14.2292 0.5 15.8542 0.828125 17.375 1.48438C18.8958 2.14063 20.2188 3.03125 21.3438 4.15625C22.4688 5.28125 23.3594 6.60417 24.0156 8.125C24.6719 9.64583 25 11.2708 25 13C25 14.7292 24.6719 16.3542 24.0156 17.875C23.3594 19.3958 22.4688 20.7188 21.3438 21.8438C20.2188 22.9688 18.8958 23.8594 17.375 24.5156C15.8542 25.1719 14.2292 25.5 12.5 25.5Z" fill="#B8ACFF"/>
</svg>
