<svg width="35" height="36" viewBox="0 0 35 36" fill="none" xmlns="http://www.w3.org/2000/svg">
<path d="M2.91672 0.5H32.0833C32.8569 0.5 33.5988 0.807313 34.1458 1.35433C34.6929 1.90135 35.0002 2.64327 35.0002 3.41687V32.5833C35.0002 33.3569 34.6929 34.0987 34.1459 34.6457C33.5989 35.1927 32.857 35.5 32.0835 35.5H2.9163C2.14285 35.5 1.40108 35.1928 0.854165 34.6458C0.307252 34.0989 0 33.3572 0 32.5837V3.41667C-2.73046e-07 3.03365 0.0754428 2.65437 0.222022 2.30051C0.368601 1.94664 0.583445 1.62511 0.854287 1.35427C1.12513 1.08343 1.44667 0.868593 1.80054 0.722017C2.15441 0.575441 2.53369 0.499999 2.91672 0.5Z" fill="#FDB913"/>
<path d="M19.5425 18.3775L19.5396 12.1111L21.1753 11.7229V12.5444C21.1753 12.5444 21.599 11.4641 22.5823 11.2133C22.7291 11.166 22.8853 11.1555 23.0372 11.1828V12.7816C22.7427 12.7855 22.4517 12.8461 22.1801 12.96C21.5757 13.1987 21.2715 13.7196 21.2715 14.5146L21.2726 17.9748L19.5425 18.3775Z" fill="#231F20"/>
<path d="M10.9196 20.4158C10.9196 20.4158 10.6537 20.017 10.6537 18.6071V15.4869L9.81201 15.6872V14.4018L10.6555 14.2026V12.8015L12.3948 12.3906V13.7918L13.6238 13.4999V14.7838L12.3948 15.0755C12.3948 15.0755 12.3929 17.6318 12.3948 18.2526C12.3948 19.6973 12.7782 19.9746 12.7782 19.9746L10.9196 20.4158Z" fill="#231F20"/>
<path d="M13.8059 16.6868C13.8059 15.5728 13.9646 14.7601 14.3051 14.1363C14.7104 13.3961 15.3749 12.9138 16.343 12.6934C18.2511 12.2594 18.9397 13.3889 18.9131 14.9033C18.9029 15.4449 18.9054 15.7088 18.9054 15.7088L15.5437 16.4989V16.5531C15.5437 17.6112 15.7656 18.1134 16.4361 17.9711C17.0154 17.8489 17.1765 17.4861 17.2223 17.0374C17.2297 16.965 17.2333 16.781 17.2333 16.781L18.8081 16.4037C18.8081 16.4037 18.8118 16.5326 18.8095 16.6773C18.7958 17.2786 18.6209 18.7702 16.4322 19.2877C14.3588 19.7798 13.8059 18.5136 13.8059 16.6868ZM16.4128 13.8606C15.8558 13.987 15.5637 14.5334 15.551 15.4387L17.242 15.036C17.2449 14.995 17.2453 14.9048 17.2449 14.7634C17.242 14.08 17.0308 13.7192 16.4128 13.8606Z" fill="#231F20"/>
<path d="M28.9239 13.0239C28.8589 11.1154 29.3539 9.60073 31.4832 9.11836C32.8403 8.81002 33.3558 9.16307 33.6167 9.50426C33.8677 9.82986 33.9646 10.269 33.9646 10.884L33.966 10.9969L32.3002 11.3928C32.3002 11.3928 32.2989 11.1682 32.2989 11.1609C32.3002 10.4316 32.0974 10.1542 31.5677 10.2869C30.9377 10.4451 30.6832 11.0431 30.6832 12.2319C30.6832 12.654 30.685 12.7297 30.685 12.7867C30.685 13.9949 30.8501 14.5479 31.5762 14.3959C32.206 14.2658 32.2923 13.7127 32.3024 13.2279C32.3037 13.1518 32.3068 12.9081 32.3068 12.9081L33.9702 12.5151C33.9702 12.5151 33.9718 12.638 33.9718 12.7746C33.9677 14.3589 33.1327 15.3573 31.5683 15.7214C29.413 16.2266 28.9909 14.9812 28.9239 13.0239Z" fill="#231F20"/>
<path d="M23.1655 15.6958C23.1655 14.2441 24.0159 13.785 25.2959 13.2554C26.4469 12.7793 26.4719 12.5429 26.4767 12.1291C26.4831 11.7809 26.3216 11.4829 25.7485 11.6291C25.5574 11.6676 25.385 11.7695 25.2591 11.9183C25.1332 12.0671 25.0612 12.2541 25.0549 12.4489C25.0455 12.5559 25.0419 12.6632 25.0441 12.7706L23.4302 13.1517C23.4194 12.8301 23.4569 12.5086 23.5417 12.1982C23.7997 11.3301 24.5653 10.7461 25.8868 10.4402C27.6038 10.0446 28.1762 10.7981 28.1783 11.9701V14.7456C28.1783 16.0879 28.4274 16.2846 28.4274 16.2846L26.843 16.6595C26.7556 16.4764 26.6846 16.286 26.6307 16.0904C26.6307 16.0904 26.2837 16.9645 25.0873 17.2456C23.8309 17.5419 23.1655 16.7632 23.1655 15.6958ZM26.4657 13.7135C26.1986 13.9007 25.9167 14.0658 25.6227 14.2071C25.0946 14.4651 24.8559 14.7834 24.8559 15.2737C24.8559 15.6983 25.1189 15.9771 25.597 15.859C26.1097 15.7297 26.4657 15.2512 26.4657 14.5865V13.7135Z" fill="#231F20"/>
<path d="M1.82576 24.8085C1.64493 24.8082 1.46751 24.7593 1.31218 24.6667C1.15684 24.5741 1.02933 24.4414 0.943079 24.2825C0.856826 24.1235 0.815016 23.9443 0.822051 23.7636C0.829085 23.5829 0.884705 23.4075 0.983054 23.2557L0.994281 23.2412L1.0132 23.2362L3.37893 22.6777V24.4743L3.34213 24.4829C2.80548 24.612 2.16405 24.759 2.03202 24.7871C1.9642 24.8014 1.89507 24.8086 1.82576 24.8085Z" fill="#231F20"/>
<path d="M1.82576 27.1078C1.55955 27.1079 1.30422 27.0022 1.11586 26.8141C0.927511 26.626 0.821559 26.3708 0.821293 26.1046C0.820749 25.9106 0.876981 25.7208 0.983056 25.5584L0.994283 25.5416L1.0132 25.5368L3.37893 24.9785V26.7751L3.34213 26.7847C2.80548 26.9134 2.16405 27.0621 2.03202 27.0885C1.96406 27.1016 1.89498 27.1081 1.82576 27.1078Z" fill="#231F20"/>
<path d="M1.82576 29.4096C1.55948 29.4095 1.30415 29.3036 1.11582 29.1154C0.927492 28.9271 0.821565 28.6719 0.821296 28.4056C0.820545 28.2116 0.876794 28.0217 0.983059 27.8594L0.994287 27.8413L3.37893 27.2793V29.0759L3.34213 29.0855C2.77534 29.2219 2.14596 29.3641 2.03202 29.3892C1.96411 29.4028 1.89502 29.4097 1.82576 29.4096Z" fill="#231F20"/>
<path d="M1.54677 22.6068L1.54614 12.5542L3.37897 12.1211V22.1735L1.54677 22.6068Z" fill="#231F20"/>
<path d="M6.11166 21.7519C6.11166 21.452 5.99252 21.1643 5.78046 20.9523C5.5684 20.7402 5.28078 20.6211 4.98088 20.6211C4.68098 20.6211 4.39336 20.7402 4.1813 20.9523C3.96923 21.1643 3.8501 21.452 3.8501 21.7519L3.85197 31.1474C3.85298 31.9588 4.1756 32.7367 4.74914 33.3106C5.32268 33.8845 6.10035 34.2077 6.91174 34.2092C7.76775 34.2092 10.1127 34.2051 10.1127 34.2051L10.1137 30.2854C10.1143 28.1439 10.1148 25.9641 10.1148 25.9144C10.115 25.6707 10.0552 25.4307 9.94044 25.2157C9.82572 25.0008 9.65969 24.8174 9.45711 24.682L6.60422 22.7445C6.60422 22.7445 6.6036 26.951 6.6036 27.1444C6.6036 27.2089 6.57797 27.2708 6.53235 27.3164C6.48672 27.362 6.42485 27.3877 6.36033 27.3877C6.29581 27.3877 6.23393 27.362 6.18831 27.3164C6.14269 27.2708 6.11706 27.2089 6.11706 27.1444C6.11706 27.0972 6.11166 22.333 6.11166 21.7519Z" fill="#231F20"/>
<path d="M7.63855 14.742C7.29189 14.8225 6.96667 14.9768 6.68513 15.1945C6.40358 15.4122 6.17234 15.688 6.0072 16.0033V15.2968L4.35693 15.6872L4.35881 20.199C4.64829 20.0846 4.96378 20.0524 5.27043 20.106C5.57708 20.1596 5.86293 20.2969 6.0964 20.5028V17.5897C6.0964 16.8919 6.44363 16.3345 6.93973 16.2251C7.31295 16.1432 7.62462 16.2767 7.62462 16.9414L7.62587 21.1916L9.36409 20.7841V16.2879C9.36409 15.1978 8.9443 14.4358 7.63855 14.742Z" fill="#231F20"/>
<path d="M32.8942 8.30703C32.6817 8.30722 32.4738 8.24435 32.297 8.12638C32.1202 8.00841 31.9823 7.84065 31.9009 7.64431C31.8194 7.44797 31.798 7.23189 31.8394 7.02339C31.8808 6.8149 31.9831 6.62337 32.1334 6.47304C32.2837 6.32271 32.4752 6.22033 32.6836 6.17885C32.8921 6.13738 33.1082 6.15868 33.3046 6.24005C33.501 6.32142 33.6688 6.45921 33.7868 6.63599C33.9049 6.81276 33.9678 7.02058 33.9677 7.23314C33.9674 7.5178 33.8543 7.79072 33.653 7.99205C33.4518 8.19337 33.1789 8.30665 32.8942 8.30703ZM32.8942 6.29335C32.7084 6.29331 32.5267 6.34838 32.3722 6.45159C32.2176 6.55479 32.0972 6.70151 32.026 6.87318C31.9549 7.04485 31.9362 7.23376 31.9724 7.41603C32.0086 7.5983 32.0981 7.76574 32.2295 7.89717C32.3608 8.0286 32.5282 8.11812 32.7105 8.15442C32.8928 8.19071 33.0817 8.17215 33.2534 8.10107C33.4251 8.02999 33.5719 7.9096 33.6751 7.75511C33.7784 7.60062 33.8336 7.41897 33.8336 7.23314C33.8334 6.98403 33.7344 6.74517 33.5583 6.56898C33.3822 6.39279 33.1433 6.29366 32.8942 6.29335Z" fill="#231F20"/>
<path d="M32.5027 6.59352H32.9657C33.011 6.58867 33.0568 6.59409 33.0996 6.60938C33.1425 6.62466 33.1814 6.64942 33.2134 6.68181C33.2454 6.7142 33.2697 6.75338 33.2844 6.79645C33.2992 6.83951 33.304 6.88535 33.2986 6.93055C33.2986 7.10063 33.2231 7.23141 33.0801 7.25366V7.25615C33.2102 7.26946 33.2786 7.34119 33.2853 7.52561C33.2878 7.60878 33.289 7.71191 33.293 7.79216C33.2931 7.81474 33.2988 7.83695 33.3096 7.85675C33.3205 7.87654 33.3361 7.8933 33.3552 7.90548H33.1185C33.096 7.8708 33.0837 7.83042 33.0832 7.78904C33.0759 7.71066 33.0778 7.63664 33.0743 7.54141C33.0707 7.39837 33.0269 7.33578 32.8832 7.33578H32.7119V7.90548H32.5027V6.59352ZM32.8794 7.17777C32.9079 7.18037 32.9365 7.17664 32.9634 7.16682C32.9902 7.157 33.0145 7.14135 33.0345 7.121C33.0545 7.10065 33.0698 7.07611 33.0792 7.04914C33.0886 7.02218 33.0919 6.99346 33.0888 6.96507C33.0888 6.82514 33.0283 6.75154 32.8905 6.75154H32.7119V7.17777H32.8794Z" fill="#231F20"/>
</svg>
