<svg width="35" height="35" viewBox="0 0 35 35" fill="none" xmlns="http://www.w3.org/2000/svg">
<rect width="35" height="35" rx="5" fill="#0038FF"/>
<path d="M13.1306 7.07899L13.1306 7.07899C12.8996 7.28111 12.8 7.57373 12.8 7.91803V22.377C12.8 22.7057 12.9028 22.989 13.1209 23.207C13.3357 23.4218 13.6063 23.5279 13.918 23.5279H23.6885C23.7617 23.5279 23.8049 23.5374 23.8274 23.5464C23.8337 23.5489 23.8374 23.5509 23.8394 23.5522L23.852 23.5775L23.875 23.6004C23.8812 23.6067 23.9148 23.6559 23.9148 23.8197V26.1148C23.9148 26.2785 23.8812 26.3277 23.875 26.334L23.861 26.348L23.8577 26.3529C23.8547 26.3541 23.8503 26.3558 23.8442 26.3576C23.8153 26.3663 23.7657 26.3738 23.6885 26.3738H13.918C13.8107 26.3738 13.766 26.3456 13.7449 26.3229C13.7213 26.2975 13.6918 26.2405 13.6918 26.1148V25.7242C13.6918 25.6004 13.6648 25.4702 13.5757 25.37C13.4826 25.2653 13.3543 25.2291 13.2295 25.2291C13.1069 25.2291 12.9843 25.2711 12.8995 25.3801C12.8222 25.4795 12.8 25.6054 12.8 25.7242V26.1148C12.8 26.4591 12.8996 26.7517 13.1306 26.9538L13.1363 26.9588L13.1423 26.9633C13.3583 27.1253 13.6214 27.2 13.918 27.2H23.6885C24.0236 27.2 24.3119 27.1193 24.5159 26.9227C24.7212 26.7247 24.8066 26.4426 24.8066 26.1148V23.8197C24.8066 23.4808 24.7214 23.1882 24.5276 22.9667C24.3254 22.7357 24.0328 22.6361 23.6885 22.6361H13.918C13.8107 22.6361 13.766 22.6079 13.7449 22.5852C13.7213 22.5598 13.6918 22.5028 13.6918 22.377V7.91803C13.6918 7.79233 13.7213 7.73531 13.7449 7.70986C13.766 7.68721 13.8107 7.65902 13.918 7.65902H16.4426C16.5648 7.65902 16.6197 7.68943 16.6455 7.71519C16.6712 7.74096 16.7016 7.79586 16.7016 7.91803V20.253C16.7016 20.353 16.7272 20.4521 16.7908 20.537C16.8538 20.6209 16.9412 20.6738 17.0351 20.7051L17.0522 20.7108L17.0701 20.7133C17.1889 20.7303 17.324 20.7087 17.421 20.5978C17.5069 20.4997 17.5279 20.3689 17.5279 20.253V7.91803C17.5279 7.58298 17.4472 7.29463 17.2505 7.09068C17.0526 6.88538 16.7704 6.8 16.4426 6.8H13.918C13.614 6.8 13.3466 6.88995 13.1306 7.07899ZM23.8413 23.5536C23.8413 23.5537 23.841 23.5534 23.8405 23.553C23.8411 23.5534 23.8413 23.5536 23.8413 23.5536Z" fill="white" stroke="white" stroke-width="0.4"/>
</svg>
