<svg width="13" height="21" viewBox="0 0 13 21" fill="none" xmlns="http://www.w3.org/2000/svg">
<path d="M1.81818 20.998C1.31818 20.998 0.890152 20.82 0.534091 20.464C0.17803 20.1079 0 19.6799 0 19.1799V2.81623C0 2.31623 0.17803 1.8882 0.534091 1.53214C0.890152 1.17608 1.31818 0.998047 1.81818 0.998047H10.9091C11.4091 0.998047 11.8371 1.17608 12.1932 1.53214C12.5492 1.8882 12.7273 2.31623 12.7273 2.81623V19.1799C12.7273 19.6799 12.5492 20.1079 12.1932 20.464C11.8371 20.82 11.4091 20.998 10.9091 20.998H1.81818ZM6.36364 18.7253C6.62121 18.7253 6.83712 18.6382 7.01136 18.464C7.18561 18.2897 7.27273 18.0738 7.27273 17.8162C7.27273 17.5587 7.18561 17.3427 7.01136 17.1685C6.83712 16.9943 6.62121 16.9071 6.36364 16.9071C6.10606 16.9071 5.89015 16.9943 5.71591 17.1685C5.54167 17.3427 5.45455 17.5587 5.45455 17.8162C5.45455 18.0738 5.54167 18.2897 5.71591 18.464C5.89015 18.6382 6.10606 18.7253 6.36364 18.7253ZM1.81818 14.6344H10.9091V5.5435H1.81818V14.6344Z" fill="white"/>
</svg>
