<svg width="22" height="21" viewBox="0 0 22 21" fill="none" xmlns="http://www.w3.org/2000/svg">
<path d="M14.1051 20.811H13.9735C9.47854 20.811 7.31205 19.0393 6.93746 15.0707C6.89697 14.6557 7.20068 14.2811 7.62588 14.2406C8.03084 14.2001 8.41554 14.5139 8.45604 14.929C8.74963 18.1079 10.248 19.2924 13.9836 19.2924H14.1153C18.2357 19.2924 19.6935 17.8345 19.6935 13.7141V7.11341C19.6935 2.99301 18.2357 1.53518 14.1153 1.53518H13.9836C10.2277 1.53518 8.72938 2.73991 8.45604 5.97954C8.40542 6.39462 8.05109 6.70845 7.62588 6.66796C7.52611 6.66016 7.42885 6.63274 7.33969 6.58728C7.25053 6.54181 7.17123 6.47918 7.10633 6.403C7.04143 6.32681 6.99221 6.23856 6.9615 6.14331C6.93078 6.04806 6.91917 5.94768 6.92734 5.84793C7.27155 1.81864 9.44817 0.0166016 13.9735 0.0166016H14.1051C19.0759 0.0166016 21.2019 2.14261 21.2019 7.11341V13.7141C21.2019 18.6849 19.0759 20.811 14.1051 20.811Z" fill="white"/>
<path d="M13.8632 11.1738H2.34229C1.92722 11.1738 1.58301 10.8296 1.58301 10.4146C1.58301 9.99948 1.92722 9.65527 2.34229 9.65527H13.8632C14.2783 9.65527 14.6225 9.99948 14.6225 10.4146C14.6225 10.8296 14.2783 11.1738 13.8632 11.1738Z" fill="white"/>
<path d="M4.60059 14.5656C4.40824 14.5656 4.21589 14.4947 4.06403 14.3429L0.672546 10.9514C0.531338 10.8085 0.452148 10.6157 0.452148 10.4148C0.452148 10.214 0.531338 10.0212 0.672546 9.87828L4.06403 6.48679C4.35762 6.1932 4.84356 6.1932 5.13715 6.48679C5.43075 6.78039 5.43075 7.26633 5.13715 7.55992L2.28223 10.4148L5.13715 13.2698C5.43075 13.5634 5.43075 14.0493 5.13715 14.3429C4.99542 14.4947 4.79294 14.5656 4.60059 14.5656Z" fill="white"/>
</svg>
