<svg width="21" height="21" viewBox="0 0 21 21" fill="none" xmlns="http://www.w3.org/2000/svg">
<path d="M9.82786 20.962H5.87631C2.19761 20.962 0.560547 19.3249 0.560547 15.6462V11.6947C0.560547 8.01597 2.19761 6.37891 5.87631 6.37891H9.82786C13.5066 6.37891 15.1436 8.01597 15.1436 11.6947V15.6462C15.1436 19.3249 13.5066 20.962 9.82786 20.962ZM5.87631 7.79017C2.9597 7.79017 1.97181 8.77806 1.97181 11.6947V15.6462C1.97181 18.5628 2.9597 19.5507 5.87631 19.5507H9.82786C12.7445 19.5507 13.7324 18.5628 13.7324 15.6462V11.6947C13.7324 8.77806 12.7445 7.79017 9.82786 7.79017H5.87631Z" fill="white"/>
<path d="M15.4734 15.3174H14.4384C14.0527 15.3174 13.7328 14.9976 13.7328 14.6118V11.6952C13.7328 8.77859 12.7449 7.7907 9.8283 7.7907H6.91169C6.52594 7.7907 6.20605 7.47081 6.20605 7.08507V6.05014C6.20605 2.37144 7.84312 0.734375 11.5218 0.734375H15.4734C19.1521 0.734375 20.7891 2.37144 20.7891 6.05014V10.0017C20.7891 13.6804 19.1521 15.3174 15.4734 15.3174ZM15.1441 13.9062H15.4734C18.39 13.9062 19.3779 12.9183 19.3779 10.0017V6.05014C19.3779 3.13353 18.39 2.14564 15.4734 2.14564H11.5218C8.60521 2.14564 7.61732 3.13353 7.61732 6.05014V6.37944H9.8283C13.507 6.37944 15.1441 8.0165 15.1441 11.6952V13.9062Z" fill="white"/>
</svg>
