<svg width="30" height="31" viewBox="0 0 30 31" fill="none" xmlns="http://www.w3.org/2000/svg">
<path d="M15 30.5C23.2843 30.5 30 23.7843 30 15.5C30 7.21573 23.2843 0.5 15 0.5C6.71573 0.5 0 7.21573 0 15.5C0 23.7843 6.71573 30.5 15 30.5Z" fill="white"/>
<path fill-rule="evenodd" clip-rule="evenodd" d="M30 15.5C30 23.7843 23.2843 30.5 15 30.5C6.71571 30.5 0 23.7843 0 15.5C0 13.2179 0.508929 11.0557 1.42179 9.11857C0.814286 10.6571 0.541071 12.1807 0.541071 13.6079C0.541071 20.3996 6.02464 21.3832 8.35821 21.3607C11.9046 21.3286 16.0511 19.5907 19.5439 16.3721L18.9546 19.6839C18.8229 20.4414 19.3179 21.1079 20.0743 21.1121H20.3871C21.1714 21.1121 21.7286 20.4736 21.87 19.6839L23.1279 12.6061C23.2779 11.8207 22.7614 11.1811 21.9761 11.1811H14.8854C14.0968 11.1811 13.3757 11.5989 13.2354 12.3907L13.1796 12.71C13.0671 13.4632 13.5921 14.0311 14.3443 14.0311H18.0429C17.9833 14.0883 17.9244 14.1462 17.8661 14.2046C15.3161 16.6186 12.1714 17.9396 9.56571 17.9396C6.96536 17.9396 4.05321 16.2993 4.05321 12.6039C4.05321 4.94321 11.2382 0.5 15 0.5C23.2671 0.5 30 7.21571 30 15.5Z" fill="#DA291C"/>
</svg>
