<svg width="5" height="17" viewBox="0 0 5 17" fill="none" xmlns="http://www.w3.org/2000/svg">
<path d="M2.5 16.5C1.95 16.5 1.47917 16.3042 1.0875 15.9125C0.695833 15.5208 0.5 15.05 0.5 14.5C0.5 13.95 0.695833 13.4792 1.0875 13.0875C1.47917 12.6958 1.95 12.5 2.5 12.5C3.05 12.5 3.52083 12.6958 3.9125 13.0875C4.30417 13.4792 4.5 13.95 4.5 14.5C4.5 15.05 4.30417 15.5208 3.9125 15.9125C3.52083 16.3042 3.05 16.5 2.5 16.5ZM2.5 10.5C1.95 10.5 1.47917 10.3042 1.0875 9.9125C0.695833 9.52083 0.5 9.05 0.5 8.5C0.5 7.95 0.695833 7.47917 1.0875 7.0875C1.47917 6.69583 1.95 6.5 2.5 6.5C3.05 6.5 3.52083 6.69583 3.9125 7.0875C4.30417 7.47917 4.5 7.95 4.5 8.5C4.5 9.05 4.30417 9.52083 3.9125 9.9125C3.52083 10.3042 3.05 10.5 2.5 10.5ZM2.5 4.5C1.95 4.5 1.47917 4.30417 1.0875 3.9125C0.695833 3.52083 0.5 3.05 0.5 2.5C0.5 1.95 0.695833 1.47917 1.0875 1.0875C1.47917 0.695833 1.95 0.5 2.5 0.5C3.05 0.5 3.52083 0.695833 3.9125 1.0875C4.30417 1.47917 4.5 1.95 4.5 2.5C4.5 3.05 4.30417 3.52083 3.9125 3.9125C3.52083 4.30417 3.05 4.5 2.5 4.5Z" fill="#ACACAE"/>
</svg>
