<svg width="35" height="35" viewBox="0 0 35 35" fill="none" xmlns="http://www.w3.org/2000/svg">
<rect width="35" height="35" rx="5" fill="white"/>
<path d="M27 0.000148337V3.70843e-05L24.3442 0C24.3442 0 24.3442 7.41687e-05 24.3442 0.000148337C24.3442 4.05098 21.1238 7.34225 17.1257 7.41004C17.0838 7.40952 17.042 7.40845 17 7.40845C16.9579 7.40845 16.9161 7.40952 16.8742 7.41004C12.8762 7.34221 9.65573 4.05094 9.65573 0.000148337V3.70843e-05L7 0C7 0 7 7.41687e-05 7 0.000148337C7 3.74151 9.0176 7.00727 12.0147 8.75005C9.0176 10.4928 7 13.7586 7 17.5C7 21.2414 9.01764 24.5072 12.0147 26.25C9.01764 27.9927 7 31.2585 7 34.9999V35H9.65573C9.65573 35 9.65573 34.9999 9.65573 34.9999C9.65573 30.9482 12.8776 27.6563 16.8768 27.5899C16.9179 27.5904 16.9588 27.5915 17 27.5915C17.0412 27.5915 17.0821 27.5904 17.1232 27.5899C21.1224 27.6563 24.3443 30.9482 24.3443 34.9999V35H27C27 35 27 34.9999 27 34.9999C27 31.2585 24.9824 27.9927 21.9853 26.2499C24.9824 24.5071 27 21.2414 27 17.4999C27 13.7585 24.9824 10.4928 21.9853 8.75001C24.9823 7.00727 27 3.74151 27 0.000148337ZM24.3442 17.5C24.3442 21.5517 21.1224 24.8435 17.1231 24.9099C17.0821 24.9094 17.0412 24.9084 17 24.9084C16.9588 24.9084 16.9179 24.9094 16.8768 24.9099C12.8775 24.8435 9.65569 21.5517 9.65569 17.5C9.65569 13.4492 12.8762 10.1579 16.8742 10.0901C16.9161 10.0906 16.9579 10.0917 17 10.0917C17.042 10.0917 17.0838 10.0906 17.1257 10.0901C21.1238 10.1579 24.3442 13.4491 24.3442 17.5Z" fill="#59C7F2"/>
</svg>
