<svg width="35" height="35" viewBox="0 0 35 35" fill="none" xmlns="http://www.w3.org/2000/svg">
<rect width="35" height="35" rx="5" fill="black"/>
<path fill-rule="evenodd" clip-rule="evenodd" d="M12.039 24.1739H23.3446C23.3617 24.1739 23.3708 24.1824 23.3708 24.2V26.9739C23.3708 26.9915 23.3617 27 23.3446 27H12.039C12.0214 27 12.0129 26.9915 12.0129 26.9739V24.2L12.039 24.1739ZM14.8653 12.7381V16.166C14.8653 17.0386 15.2408 17.7886 15.9909 18.4165C16.5142 18.8006 17.0461 18.9926 17.587 18.9926H17.7705C18.5728 18.9926 19.2882 18.6347 19.9161 17.9193C20.3349 17.3614 20.5445 16.7767 20.5445 16.166V12.7381C20.5445 11.9353 20.2132 11.229 19.5501 10.6182C18.9916 10.1648 18.3808 9.93808 17.7182 9.93808H17.6921C16.7495 9.93808 15.9648 10.3654 15.3364 11.2205C15.0227 11.7262 14.8653 12.2324 14.8653 12.7381ZM17.6393 7.11194H17.7705C19.0615 7.11194 20.2479 7.54778 21.3292 8.41995C21.6957 8.73413 21.9576 8.99603 22.1145 9.20516C22.952 10.287 23.3708 11.4557 23.3708 12.7119V16.1926C23.3708 17.4659 22.9434 18.6523 22.0883 19.7512C21.7048 20.1875 21.373 20.5012 21.094 20.6932C20.0473 21.4437 18.9132 21.8187 17.6921 21.8187C16.1915 21.8187 14.8653 21.2778 13.7141 20.196C13.2606 19.725 12.9203 19.2716 12.6936 18.8353C12.2396 18.0154 12.0129 17.0296 12.0129 15.8784V13.1045C12.0129 11.9006 12.2396 10.8977 12.6936 10.0949C12.868 9.74605 13.1732 9.32731 13.609 8.83869C14.1153 8.35058 14.4988 8.04494 14.7607 7.92278C15.6681 7.38189 16.6278 7.11194 17.6393 7.11194Z" fill="white"/>
<path fill-rule="evenodd" clip-rule="evenodd" d="M17.7058 7C20.8443 7 23.4121 9.56776 23.4121 12.7061V16.2068C23.4121 19.3451 20.8443 21.9129 17.7058 21.9129C14.5674 21.9129 12 19.3451 12 16.2068V12.7061C12 9.56776 14.5674 7 17.7058 7Z" fill="white"/>
</svg>
