<svg width="11" height="19" viewBox="0 0 11 19" fill="none" xmlns="http://www.w3.org/2000/svg">
<path d="M2.27264 18.6004L10.6976 10.2004C10.7976 10.1004 10.8686 9.99206 10.9106 9.87539C10.9526 9.75872 10.9733 9.63372 10.9726 9.50039C10.9726 9.36706 10.952 9.24206 10.9106 9.12539C10.8693 9.00872 10.7983 8.90039 10.6976 8.80039L2.27264 0.375391C2.03931 0.142057 1.74764 0.0253906 1.39764 0.0253906C1.04764 0.0253906 0.747642 0.150391 0.497642 0.400391C0.247642 0.650391 0.122642 0.942057 0.122642 1.27539C0.122642 1.60872 0.247642 1.90039 0.497642 2.15039L7.84764 9.50039L0.497642 16.8504C0.264308 17.0837 0.147641 17.3714 0.147641 17.7134C0.147641 18.0554 0.272641 18.3511 0.522641 18.6004C0.772641 18.8504 1.06431 18.9754 1.39764 18.9754C1.73097 18.9754 2.02264 18.8504 2.27264 18.6004Z" fill="#F9FAFA"/>
</svg>
