<svg width="80" height="80" viewBox="0 0 80 80" fill="none" xmlns="http://www.w3.org/2000/svg">
<path d="M40 80C62.0914 80 80 62.0914 80 40C80 17.9086 62.0914 0 40 0C17.9086 0 0 17.9086 0 40C0 62.0914 17.9086 80 40 80Z" fill="white"/>
<path d="M39.9992 0C24.1408 0 10.4383 9.22891 3.96826 22.6088H76.03C69.5601 9.22891 55.8575 0 39.9992 0Z" fill="#74ACDF"/>
<path d="M39.9992 79.9916C55.8575 79.9916 69.5601 70.7627 76.0301 57.3828H3.96826C10.4383 70.7627 24.1408 79.9916 39.9992 79.9916Z" fill="#74ACDF"/>
<path d="M51.9554 40.0058L47.0702 42.3038L49.6716 47.0348L44.3669 46.02L43.6947 51.3787L39.9999 47.4375L36.3049 51.3787L35.6329 46.02L30.3282 47.0347L32.9294 42.3036L28.0444 40.0058L32.9296 37.7078L30.3282 32.9769L35.6327 33.9916L36.3051 28.6328L39.9999 32.5741L43.6949 28.6328L44.3669 33.9916L49.6718 32.9769L47.0704 37.708L51.9554 40.0058Z" fill="#F6B40E"/>
</svg>
