<svg width="31" height="28" viewBox="0 0 31 28" fill="none" xmlns="http://www.w3.org/2000/svg">
<path fill-rule="evenodd" clip-rule="evenodd" d="M0.363281 8.87853C0.363281 8.27683 0.841479 7.78906 1.43137 7.78906H29.9136C30.5035 7.78906 30.9817 8.27683 30.9817 8.87853C30.9817 9.48023 30.5035 9.968 29.9136 9.968H1.43137C0.841479 9.968 0.363281 9.48023 0.363281 8.87853Z" fill="#F9FAFA"/>
<path fill-rule="evenodd" clip-rule="evenodd" d="M6.05859 20.4996C6.05859 19.8979 6.53679 19.4102 7.12668 19.4102H9.97491C10.5648 19.4102 11.043 19.8979 11.043 20.4996C11.043 21.1013 10.5648 21.5891 9.97491 21.5891H7.12668C6.53679 21.5891 6.05859 21.1013 6.05859 20.4996Z" fill="#F9FAFA"/>
<path fill-rule="evenodd" clip-rule="evenodd" d="M12.4688 20.4996C12.4688 19.8979 12.9469 19.4102 13.5368 19.4102H19.2333C19.8232 19.4102 20.3014 19.8979 20.3014 20.4996C20.3014 21.1013 19.8232 21.5891 19.2333 21.5891H13.5368C12.9469 21.5891 12.4688 21.1013 12.4688 20.4996Z" fill="#F9FAFA"/>
<path fill-rule="evenodd" clip-rule="evenodd" d="M3.44801 3.66608C2.84267 4.27658 2.49945 5.43697 2.49945 7.99189V19.9325C2.49945 22.4879 2.84287 23.6473 3.44729 24.2558C4.05562 24.8681 5.21493 25.2128 7.75142 25.2055L7.75443 25.2055L23.5906 25.2055C26.1269 25.2055 27.2875 24.8585 27.897 24.2438C28.5023 23.6333 28.8456 22.4729 28.8456 19.918V7.99189C28.8456 5.43688 28.5023 4.27716 27.8959 3.66679C27.2847 3.05144 26.1203 2.70433 23.5763 2.70433H7.75443C5.21809 2.70433 4.05756 3.05133 3.44801 3.66608ZM1.94608 2.11664C3.23417 0.81755 5.23517 0.525391 7.75443 0.525391H23.5763C26.1022 0.525391 28.1065 0.817432 29.3964 2.11592C30.6913 3.41938 30.9817 5.44819 30.9817 7.99189V19.918C30.9817 22.4618 30.6912 24.4899 29.3989 25.7932C28.1108 27.0923 26.1098 27.3845 23.5906 27.3845H7.75549C5.2373 27.3915 3.23578 27.1042 1.94681 25.8066C0.653591 24.5049 0.363281 22.4758 0.363281 19.9325V7.99189C0.363281 5.44809 0.65379 3.41996 1.94608 2.11664Z" fill="#F9FAFA"/>
</svg>
