<svg width="40" height="36" viewBox="0 0 40 36" fill="none" xmlns="http://www.w3.org/2000/svg">
<path fill-rule="evenodd" clip-rule="evenodd" d="M29.3162 3.51186C29.8253 2.99263 30.6506 2.99263 31.1596 3.51186L38.5332 11.0331C39.0422 11.5523 39.0422 12.3941 38.5332 12.9134L31.1596 20.4346C30.6506 20.9538 29.8253 20.9538 29.3162 20.4346C28.8072 19.9153 28.8072 19.0735 29.3162 18.5543L34.4646 13.3028L19.1776 13.3028C18.4577 13.3028 17.8741 12.7075 17.8741 11.9732C17.8741 11.2389 18.4577 10.6436 19.1776 10.6436L34.4646 10.6436L29.3162 5.39215C28.8072 4.87292 28.8072 4.03109 29.3162 3.51186Z" fill="#F9FAFA"/>
<path fill-rule="evenodd" clip-rule="evenodd" d="M10.7892 15.3263C10.2802 14.8071 9.45489 14.8071 8.94585 15.3263L1.57228 22.8475C1.06324 23.3667 1.06324 24.2086 1.57228 24.7278L8.94585 32.249C9.45489 32.7682 10.2802 32.7682 10.7892 32.249C11.2983 31.7298 11.2983 30.8879 10.7892 30.3687L5.64084 25.1172L20.9279 25.1172C21.6478 25.1172 22.2314 24.522 22.2314 23.7877C22.2314 23.0534 21.6478 22.4581 20.9279 22.4581L5.64084 22.4581L10.7892 17.2066C11.2983 16.6874 11.2983 15.8455 10.7892 15.3263Z" fill="#F9FAFA"/>
</svg>
