<svg width="19" height="13" viewBox="0 0 19 13" fill="none" xmlns="http://www.w3.org/2000/svg">
<path d="M9.71855 10.0706C10.7676 10.0706 11.6594 9.7036 12.394 8.96954C13.1281 8.23493 13.4951 7.3431 13.4951 6.29405C13.4951 5.245 13.1281 4.35317 12.394 3.61856C11.6594 2.8845 10.7676 2.51747 9.71855 2.51747C8.6695 2.51747 7.77767 2.8845 7.04306 3.61856C6.309 4.35317 5.94198 5.245 5.94198 6.29405C5.94198 7.3431 6.309 8.23493 7.04306 8.96954C7.77767 9.7036 8.6695 10.0706 9.71855 10.0706ZM9.71855 8.56C9.08912 8.56 8.55425 8.33955 8.11393 7.89867C7.67305 7.45835 7.45261 6.92348 7.45261 6.29405C7.45261 5.66462 7.67305 5.12947 8.11393 4.68859C8.55425 4.24826 9.08912 4.0281 9.71855 4.0281C10.348 4.0281 10.8831 4.24826 11.324 4.68859C11.7643 5.12947 11.9845 5.66462 11.9845 6.29405C11.9845 6.92348 11.7643 7.45835 11.324 7.89867C10.8831 8.33955 10.348 8.56 9.71855 8.56ZM9.71855 12.5883C7.77432 12.5883 5.99793 12.0744 4.38938 11.0467C2.78084 10.0183 1.56395 8.62993 0.738694 6.88152C0.696732 6.81158 0.668757 6.72402 0.65477 6.61884C0.640783 6.51421 0.633789 6.40595 0.633789 6.29405C0.633789 6.18215 0.640783 6.07361 0.65477 5.96843C0.668757 5.8638 0.696732 5.77652 0.738694 5.70658C1.56395 3.95817 2.78084 2.57007 4.38938 1.54228C5.99793 0.51393 7.77432 -0.000244141 9.71855 -0.000244141C11.6628 -0.000244141 13.4392 0.51393 15.0477 1.54228C16.6563 2.57007 17.8732 3.95817 18.6984 5.70658C18.7404 5.77652 18.7684 5.8638 18.7823 5.96843C18.7963 6.07361 18.8033 6.18215 18.8033 6.29405C18.8033 6.40595 18.7963 6.51421 18.7823 6.61884C18.7684 6.72402 18.7404 6.81158 18.6984 6.88152C17.8732 8.62993 16.6563 10.0183 15.0477 11.0467C13.4392 12.0744 11.6628 12.5883 9.71855 12.5883ZM9.71855 10.9099C11.2991 10.9099 12.7504 10.4936 14.0725 9.66108C15.394 8.82911 16.4045 7.70677 17.1039 6.29405C16.4045 4.88133 15.394 3.75871 14.0725 2.92618C12.7504 2.09422 11.2991 1.67823 9.71855 1.67823C8.13799 1.67823 6.68666 2.09422 5.36458 2.92618C4.04306 3.75871 3.03261 4.88133 2.33325 6.29405C3.03261 7.70677 4.04306 8.82911 5.36458 9.66108C6.68666 10.4936 8.13799 10.9099 9.71855 10.9099Z" fill="#F9FAFA"/>
</svg>
