<svg width="28" height="31" viewBox="0 0 28 31" fill="none" xmlns="http://www.w3.org/2000/svg">
<path d="M17.7378 3.35711V9.07134H15.5834V3.35711C15.5834 2.9511 15.2387 2.75562 15.0089 2.75562C14.9371 2.75562 14.8653 2.77065 14.7935 2.80073L3.40393 7.29693C2.64272 7.59767 2.15439 8.34955 2.15439 9.20668V10.2142C0.847392 11.2367 0 12.8758 0 14.7254V9.20668C0 7.41722 1.04847 5.82326 2.64272 5.19168L14.0466 0.68045C14.3626 0.56015 14.6929 0.5 15.0089 0.5C16.4452 0.5 17.7378 1.71803 17.7378 3.35711ZM27.2889 19.2216V20.7254C27.2889 20.9222 27.2153 21.1112 27.0837 21.2518C26.9521 21.3923 26.7731 21.4733 26.5851 21.4772H24.4882C23.727 21.4772 23.0376 20.8908 22.9801 20.1088C22.937 19.6427 23.1094 19.2066 23.3966 18.9058C23.5267 18.7648 23.6831 18.6533 23.856 18.5783C24.029 18.5033 24.2148 18.4663 24.402 18.4697H26.5708C26.9873 18.4848 27.2889 18.8156 27.2889 19.2216Z" fill="white"/>
<path d="M24.3877 16.8917H25.8526C26.6426 16.8917 27.2889 16.2151 27.2889 15.388V14.7263C27.2889 11.6136 24.8616 9.07227 21.8886 9.07227H5.40033C4.17951 9.07227 3.05923 9.49331 2.15439 10.2151C0.847392 11.2377 0 12.8767 0 14.7263V24.8465C0 27.9593 2.42728 30.5006 5.40033 30.5006H21.8886C24.8616 30.5006 27.2889 27.9593 27.2889 24.8465V24.5608C27.2889 23.7338 26.6426 23.0571 25.8526 23.0571H24.6031C23.2243 23.0571 21.9029 22.1699 21.5439 20.7714C21.2423 19.6286 21.6013 18.5308 22.3195 17.794C22.8509 17.2226 23.5834 16.8917 24.3877 16.8917ZM16.517 16.591H6.46316C5.8743 16.591 5.38597 16.0797 5.38597 15.4632C5.38597 14.8466 5.8743 14.3354 6.46316 14.3354H16.517C17.1058 14.3354 17.5942 14.8466 17.5942 15.4632C17.5942 16.0797 17.1058 16.591 16.517 16.591Z" fill="white"/>
</svg>
